<?xml version="1.0" standalone="no"?>
<!DOCTYPE svg PUBLIC "-//W3C//DTD SVG 20010904//EN"
 "http://www.w3.org/TR/2001/REC-SVG-20010904/DTD/svg10.dtd">
<svg version="1.0" xmlns="http://www.w3.org/2000/svg"
 width="96.000000pt" height="96.000000pt" viewBox="0 0 96.000000 96.000000"
 preserveAspectRatio="xMidYMid meet">

<g transform="translate(0.000000,96.000000) scale(0.100000,-0.100000)"
fill="#000000" stroke="none">
<path d="M124 735 c-12 -31 4 -45 50 -45 l44 0 42 -171 c40 -159 45 -173 69
-182 l27 -10 -28 -28 c-38 -37 -38 -81 1 -120 40 -39 82 -39 122 0 20 20 29
39 29 61 0 22 -9 41 -29 61 l-29 29 103 0 103 0 -29 -29 c-39 -40 -39 -82 0
-122 40 -39 82 -39 122 0 20 20 29 39 29 61 0 22 -9 41 -29 61 -16 16 -24 29
-17 29 31 0 47 33 86 172 22 82 40 150 40 153 0 3 -113 5 -251 5 -225 0 -251
-2 -245 -16 3 -9 6 -22 6 -30 0 -12 35 -14 205 -14 132 0 205 -4 205 -10 0 -6
-12 -53 -26 -105 l-27 -95 -172 0 -173 0 -42 170 c-31 125 -47 173 -61 180
-29 16 -119 12 -125 -5z m291 -495 c0 -18 -6 -26 -23 -28 -24 -4 -38 18 -28
44 3 9 15 14 28 12 17 -2 23 -10 23 -28z m270 0 c0 -18 -6 -26 -23 -28 -13 -2
-25 3 -28 12 -10 26 4 48 28 44 17 -2 23 -10 23 -28z"/>
</g>
</svg>
