<?xml version="1.0" standalone="no"?>
<!DOCTYPE svg PUBLIC "-//W3C//DTD SVG 20010904//EN"
 "http://www.w3.org/TR/2001/REC-SVG-20010904/DTD/svg10.dtd">
<svg version="1.0" xmlns="http://www.w3.org/2000/svg"
 width="512.000000pt" height="512.000000pt" viewBox="0 0 512.000000 512.000000"
 preserveAspectRatio="xMidYMid meet">

<g transform="translate(0.000000,512.000000) scale(0.100000,-0.100000)"
fill="#000000" stroke="none">
<path d="M88 4851 c-141 -90 -103 -302 62 -340 25 -6 167 -11 315 -11 l270 0
389 -1410 c246 -890 397 -1421 410 -1439 11 -16 36 -39 55 -52 l35 -24 1239
-3 c1197 -2 1240 -2 1281 17 24 10 54 34 68 52 33 44 888 2009 901 2071 18 80
-22 165 -97 206 -29 16 -128 17 -1374 20 -932 2 -1356 -1 -1383 -8 -47 -13
-112 -68 -129 -110 -7 -17 -11 -55 -8 -89 5 -70 37 -120 98 -151 38 -20 61
-20 1230 -20 654 0 1190 -1 1190 -2 0 -2 -157 -363 -349 -803 l-348 -800
-1056 -3 -1056 -2 -15 52 c-8 29 -184 665 -391 1413 -405 1467 -385 1403 -465
1446 -32 18 -64 19 -430 19 l-396 0 -46 -29z"/>
<path d="M4104 1085 c-82 -18 -137 -47 -201 -107 -99 -95 -137 -191 -131 -332
3 -76 9 -102 35 -158 44 -93 109 -160 202 -206 73 -36 78 -37 185 -37 100 0
117 3 170 28 171 80 265 237 254 425 -15 255 -264 443 -514 387z"/>
<path d="M1385 1077 c-104 -35 -190 -102 -242 -188 -179 -299 47 -669 394
-647 111 7 180 37 259 110 76 71 119 152 136 252 30 178 -70 364 -239 448 -60
29 -77 33 -167 35 -64 2 -116 -2 -141 -10z"/>
</g>
</svg>
