<?xml version="1.0" encoding="UTF-8"?>
<svg xmlns="http://www.w3.org/2000/svg" xmlns:xlink="http://www.w3.org/1999/xlink" width="24px" height="24px" viewBox="0 0 24 24" version="1.1">
<g id="surface1">
<path style=" stroke:none;fill-rule:nonzero;fill:rgb(0%,0%,0%);fill-opacity:1;" d="M 0.414062 1.261719 C -0.25 1.683594 -0.0703125 2.675781 0.703125 2.855469 C 0.820312 2.882812 1.484375 2.90625 2.179688 2.90625 L 3.445312 2.90625 L 5.269531 9.515625 C 6.421875 13.6875 7.128906 16.175781 7.191406 16.261719 C 7.242188 16.335938 7.359375 16.445312 7.449219 16.503906 L 7.613281 16.617188 L 13.421875 16.632812 C 19.03125 16.640625 19.234375 16.640625 19.425781 16.550781 C 19.539062 16.503906 19.679688 16.390625 19.742188 16.308594 C 19.898438 16.101562 23.90625 6.890625 23.96875 6.601562 C 24.050781 6.226562 23.863281 5.828125 23.511719 5.632812 C 23.375 5.558594 22.914062 5.554688 17.070312 5.539062 C 12.703125 5.53125 10.714844 5.546875 10.589844 5.578125 C 10.367188 5.640625 10.0625 5.898438 9.984375 6.09375 C 9.953125 6.171875 9.933594 6.351562 9.945312 6.511719 C 9.96875 6.839844 10.121094 7.074219 10.40625 7.21875 C 10.585938 7.3125 10.691406 7.3125 16.171875 7.3125 C 19.238281 7.3125 21.75 7.316406 21.75 7.320312 C 21.75 7.332031 21.015625 9.023438 20.113281 11.085938 L 18.484375 14.835938 L 13.53125 14.851562 L 8.582031 14.859375 L 8.511719 14.617188 C 8.476562 14.480469 7.648438 11.5 6.679688 7.992188 C 4.78125 1.117188 4.875 1.414062 4.5 1.214844 C 4.351562 1.128906 4.199219 1.125 2.484375 1.125 L 0.628906 1.125 Z M 0.414062 1.261719 "/>
<path style=" stroke:none;fill-rule:nonzero;fill:rgb(0%,0%,0%);fill-opacity:1;" d="M 19.238281 18.914062 C 18.851562 19 18.59375 19.132812 18.296875 19.414062 C 17.832031 19.859375 17.652344 20.3125 17.679688 20.972656 C 17.695312 21.328125 17.722656 21.449219 17.84375 21.710938 C 18.050781 22.148438 18.355469 22.460938 18.792969 22.679688 C 19.132812 22.847656 19.15625 22.851562 19.660156 22.851562 C 20.128906 22.851562 20.207031 22.835938 20.457031 22.71875 C 21.257812 22.34375 21.699219 21.609375 21.648438 20.726562 C 21.578125 19.53125 20.410156 18.652344 19.238281 18.914062 Z M 19.238281 18.914062 "/>
<path style=" stroke:none;fill-rule:nonzero;fill:rgb(0%,0%,0%);fill-opacity:1;" d="M 6.492188 18.953125 C 6.003906 19.117188 5.601562 19.429688 5.359375 19.832031 C 4.519531 21.234375 5.578125 22.96875 7.203125 22.867188 C 7.726562 22.832031 8.046875 22.691406 8.417969 22.351562 C 8.773438 22.015625 8.976562 21.636719 9.054688 21.167969 C 9.195312 20.335938 8.726562 19.460938 7.9375 19.070312 C 7.65625 18.933594 7.574219 18.914062 7.152344 18.90625 C 6.851562 18.894531 6.609375 18.914062 6.492188 18.953125 Z M 6.492188 18.953125 "/>
</g>
</svg>
