<?xml version="1.0" standalone="no"?>
<!DOCTYPE svg PUBLIC "-//W3C//DTD SVG 20010904//EN"
 "http://www.w3.org/TR/2001/REC-SVG-20010904/DTD/svg10.dtd">
<svg version="1.0" xmlns="http://www.w3.org/2000/svg"
 width="512.000000pt" height="512.000000pt" viewBox="0 0 512.000000 512.000000"
 preserveAspectRatio="xMidYMid meet">

<g transform="translate(0.000000,512.000000) scale(0.100000,-0.100000)"
fill="#000000" stroke="none">
<path d="M2415 5085 c-16 -15 -25 -36 -25 -55 0 -19 9 -40 25 -55 24 -25 26
-25 217 -25 383 0 695 -72 1033 -239 378 -187 687 -461 915 -811 88 -136 202
-373 254 -530 83 -253 116 -463 116 -746 0 -183 0 -185 25 -209 32 -33 78 -33
110 0 25 24 25 26 25 214 0 405 -76 740 -250 1096 -119 243 -248 429 -434 622
-362 377 -807 620 -1321 722 -154 30 -277 41 -480 41 -184 0 -186 0 -210 -25z"/>
<path d="M987 4809 c-170 -24 -393 -174 -648 -435 -249 -256 -329 -401 -329
-598 0 -120 13 -164 103 -347 621 -1266 1870 -2546 3156 -3234 301 -160 367
-185 507 -185 195 0 338 77 583 315 467 454 569 766 329 1005 -110 110 -449
333 -663 437 -296 142 -505 106 -840 -145 -55 -41 -106 -77 -113 -79 -12 -5
-264 201 -502 411 -172 153 -462 442 -616 616 -161 182 -414 485 -414 497 0 5
21 36 46 69 74 93 172 247 205 319 88 194 77 370 -36 595 -83 165 -280 472
-384 598 -103 125 -239 182 -384 161z m170 -185 c49 -28 106 -92 195 -219 154
-219 296 -475 324 -587 44 -171 -16 -328 -231 -603 -66 -84 -95 -128 -95 -147
0 -29 32 -71 259 -342 357 -425 691 -759 1118 -1118 269 -226 312 -258 341
-258 19 0 63 29 147 95 332 260 490 298 738 181 151 -72 459 -269 585 -374
129 -108 147 -203 68 -367 -85 -179 -369 -489 -579 -632 -94 -64 -170 -86
-276 -81 -79 5 -95 9 -201 60 -544 259 -1167 692 -1675 1164 -140 130 -431
423 -540 544 -430 475 -825 1047 -1078 1560 l-82 165 0 105 c0 98 2 110 33
175 18 38 52 95 74 125 152 202 439 457 604 537 118 56 193 61 271 17z"/>
<path d="M2435 4325 c-27 -26 -31 -51 -14 -88 15 -32 49 -47 107 -47 26 0 94
-7 151 -15 780 -111 1385 -716 1496 -1498 8 -56 15 -126 15 -155 0 -46 4 -58
29 -83 36 -36 73 -37 106 -4 30 29 32 79 10 247 -114 867 -786 1539 -1653
1653 -168 22 -218 20 -247 -10z"/>
<path d="M2464 3537 c-33 -29 -37 -79 -8 -107 11 -11 59 -31 108 -45 396 -115
706 -425 820 -820 29 -101 50 -128 97 -128 39 0 79 41 79 81 0 45 -78 262
-127 352 -125 232 -322 432 -550 557 -93 50 -319 133 -365 133 -15 0 -39 -11
-54 -23z"/>
</g>
</svg>
