<svg xmlns="http://www.w3.org/2000/svg" width="682.667" height="684" version="1.0" viewBox="0 0 512 513"><path d="M290.5.7c-6.8.9-22.6 5.3-30.1 8.2-38.5 15.4-63.6 46.2-73.6 90.4-1.7 7.9-2.1 13.9-2.7 41.2l-.6 32-28 .5c-23.6.4-28.5.8-31.1 2.2-4.6 2.5-11.1 10.1-12.3 14.4-.7 2.5-1.1 19.9-1.1 48.5v44.5l2.6 5.2c1.4 2.9 4.2 6.6 6.2 8.2 6.5 5.3 10.8 6 38.9 6H184v95.5c0 105.4-.4 99.4 6.3 106.3 1.8 1.9 5 4.3 7.2 5.5 3.9 2.2 4.7 2.2 52 2.2 47.5 0 48 0 52.1-2.2 4.8-2.5 10.1-8.3 12-12.9 1.2-2.8 1.4-20.1 1.4-98.8v-95.5l32.8-.3c31.2-.3 32.9-.4 36.7-2.4 5.1-2.8 9.1-6.8 11.9-11.9 2-3.9 2.1-5.2 2.4-47 .2-29.3 0-44.6-.8-48.2-1.4-6.6-5.7-12.4-11.7-16l-4.8-2.8-33-.5-33-.5v-19c.1-10.5.4-20.7.8-22.8 1.4-7 2.2-7.1 36.2-7.7 25.7-.5 30.6-.8 34-2.3 5-2.2 10-7 12.8-12.2 2.2-3.9 2.2-4.8 2.2-47.5 0-43 0-43.6-2.2-47.6-2.8-5.2-7.1-9.6-11.6-11.8C384.6.2 379.1 0 338.8.1c-24.9.1-46.6.4-48.3.6m81.3 60-.3 31.8-27 .6c-21.3.4-28.1.9-32.2 2.2-11 3.6-20.4 12.7-23.7 23.1-2.7 8.2-3.8 24-3.4 48.9.3 24.6.7 26.6 5.6 31 4.7 4.3 8.1 4.6 44 4.7H369v69h-35.6c-34.1 0-35.8.1-39.3 2.1-2 1.1-4.8 3.6-6.1 5.6l-2.5 3.7-.3 99.3-.2 99.3h-71l-.2-99.3-.3-99.3-2.5-3.7c-1.3-2-4.1-4.5-6.1-5.6-3.5-2-5.3-2.1-33.8-2.1H141v-69h28.8c30-.1 33.8-.6 38.4-4.7 5.2-4.7 5.2-5 5.9-47.8.6-38.9.7-40.3 3.2-49.5 4.2-15.6 9-25.6 17.4-36.8C247.2 47.7 267 36 289.6 31.6c11.5-2.2 11.8-2.3 48.7-2.4L372 29z"/></svg>