<?xml version="1.0" encoding="UTF-8"?>
<!DOCTYPE svg PUBLIC "-//W3C//DTD SVG 1.1//EN" "http://www.w3.org/Graphics/SVG/1.1/DTD/svg11.dtd">
<svg xmlns="http://www.w3.org/2000/svg" version="1.1" width="512px" height="512px" style="shape-rendering:geometricPrecision; text-rendering:geometricPrecision; image-rendering:optimizeQuality; fill-rule:evenodd; clip-rule:evenodd" xmlns:xlink="http://www.w3.org/1999/xlink">
<g><path style="opacity:0.979" fill="#000000" d="M 86.5,-0.5 C 199.5,-0.5 312.5,-0.5 425.5,-0.5C 473.163,9.16276 501.829,37.8294 511.5,85.5C 511.5,99.5 511.5,113.5 511.5,127.5C 503.065,141.742 491.732,144.575 477.5,136C 473.569,131.971 471.403,127.137 471,121.5C 475.64,94.4235 468.14,71.5902 448.5,53C 437.911,44.9133 425.911,40.58 412.5,40C 305.166,39.6423 197.832,39.9756 90.5,41C 59.2404,48.0889 42.5737,67.5889 40.5,99.5C 42.3521,130.526 58.3521,150.026 88.5,158C 200.815,159.313 313.148,159.98 425.5,160C 473.346,169.346 502.013,197.846 511.5,245.5C 511.5,305.5 511.5,365.5 511.5,425.5C 501.833,473.167 473.167,501.833 425.5,511.5C 318.5,511.5 211.5,511.5 104.5,511.5C 45.8333,500.167 10.8333,465.167 -0.5,406.5C -0.5,299.5 -0.5,192.5 -0.5,85.5C 9.91191,38.0884 38.9119,9.42169 86.5,-0.5 Z M 40.5,181.5 C 57.8809,193.571 77.2143,199.737 98.5,200C 206.167,200.333 313.833,200.667 421.5,201C 447.663,207.163 463.829,223.329 470,249.5C 470.667,306.833 470.667,364.167 470,421.5C 462.559,451.607 443.392,468.107 412.5,471C 314.5,471.667 216.5,471.667 118.5,471C 84.2762,468.989 60.1096,452.489 46,421.5C 43.7228,415.668 42.0561,409.668 41,403.5C 40.5,329.501 40.3333,255.501 40.5,181.5 Z"/></g>
<g><path style="opacity:0.973" fill="#000000" d="M 93.5,79.5 C 201.501,79.3333 309.501,79.5 417.5,80C 429.481,84.7908 433.981,93.6241 431,106.5C 427.449,114.531 421.282,119.031 412.5,120C 307.833,120.667 203.167,120.667 98.5,120C 83.3685,117.602 77.2018,108.768 80,93.5C 82.0166,86.3185 86.5166,81.6518 93.5,79.5 Z"/></g>
<g><path style="opacity:0.959" fill="#000000" d="M 399.5,310.5 C 422.647,308.813 433.147,319.48 431,342.5C 425.494,357.009 414.994,362.842 399.5,360C 384.991,354.494 379.158,343.994 382,328.5C 384.683,319.318 390.517,313.318 399.5,310.5 Z"/></g>
</svg>
