<?xml version="1.0" encoding="UTF-8"?>
<!DOCTYPE svg PUBLIC "-//W3C//DTD SVG 1.1//EN" "http://www.w3.org/Graphics/SVG/1.1/DTD/svg11.dtd">
<svg xmlns="http://www.w3.org/2000/svg" version="1.1" width="512px" height="512px" style="shape-rendering:geometricPrecision; text-rendering:geometricPrecision; image-rendering:optimizeQuality; fill-rule:evenodd; clip-rule:evenodd" xmlns:xlink="http://www.w3.org/1999/xlink">
<g><path style="opacity:0.969" fill="#000000" d="M 238.5,-0.5 C 249.833,-0.5 261.167,-0.5 272.5,-0.5C 294.241,2.69523 314.241,10.5286 332.5,23C 371.5,54.6667 410.5,86.3333 449.5,118C 475.064,145.086 481.897,176.252 470,211.5C 461.35,220.349 451.516,221.849 440.5,216C 436.732,212.572 434.232,208.405 433,203.5C 432.977,196.102 433.81,188.768 435.5,181.5C 434.693,166.721 428.693,154.554 417.5,145C 380.544,115.712 343.877,86.0457 307.5,56C 274.243,34.9684 240.576,34.3017 206.5,54C 165.419,86.4105 124.919,119.577 85,153.5C 74.883,169.938 73.883,186.938 82,204.5C 84.7477,209.252 88.2477,213.419 92.5,217C 127.833,245.667 163.167,274.333 198.5,303C 230.837,325.933 264.837,328.6 300.5,311C 310.742,304.095 320.409,296.428 329.5,288C 340.317,280.407 350.483,281.241 360,290.5C 366.021,300.556 365.188,310.056 357.5,319C 348.79,326.712 339.79,334.045 330.5,341C 291.834,365.702 250.834,370.368 207.5,355C 194.725,350.117 183.059,343.451 172.5,335C 139.456,307.621 106.123,280.621 72.5,254C 37.9973,226.147 27.4973,190.981 41,148.5C 45.8217,136.354 52.9883,125.854 62.5,117C 101.167,85.6667 139.833,54.3333 178.5,23C 196.759,10.5286 216.759,2.69523 238.5,-0.5 Z"/></g>
<g><path style="opacity:0.969" fill="#000000" d="M 271.5,511.5 C 260.833,511.5 250.167,511.5 239.5,511.5C 219.605,508.365 200.939,501.532 183.5,491C 144.545,460.38 105.878,429.38 67.5,398C 41.0202,374.562 30.8535,345.395 37,310.5C 40.5296,301.809 47.0296,297.142 56.5,296.5C 65.9704,297.142 72.4704,301.809 76,310.5C 74.0805,323.496 75.4138,336.162 80,348.5C 83.3986,354.568 87.5653,360.068 92.5,365C 129.456,394.288 166.123,423.954 202.5,454C 235.021,474.466 268.354,475.799 302.5,458C 341.455,427.38 380.122,396.38 418.5,365C 436.154,347.229 439.321,327.063 428,304.5C 424.869,300.367 421.369,296.534 417.5,293C 379.455,261.953 341.122,231.287 302.5,201C 258.672,179.193 219.338,185.527 184.5,220C 172.696,227.2 162.196,225.7 153,215.5C 148.166,207.317 148.499,199.317 154,191.5C 198.587,147.399 250.42,136.232 309.5,158C 317.653,161.574 325.32,165.907 332.5,171C 373,204.167 413.5,237.333 454,270.5C 473.852,294.583 480.186,321.917 473,352.5C 469.058,367.225 461.891,380.058 451.5,391C 412.167,423 372.833,455 333.5,487C 314.649,500.001 293.983,508.168 271.5,511.5 Z"/></g>
</svg>
