<?xml version="1.0" encoding="UTF-8"?>
<!DOCTYPE svg PUBLIC "-//W3C//DTD SVG 1.1//EN" "http://www.w3.org/Graphics/SVG/1.1/DTD/svg11.dtd">
<svg xmlns="http://www.w3.org/2000/svg" version="1.1" width="512px" height="512px" style="shape-rendering:geometricPrecision; text-rendering:geometricPrecision; image-rendering:optimizeQuality; fill-rule:evenodd; clip-rule:evenodd" xmlns:xlink="http://www.w3.org/1999/xlink">
<g><path style="opacity:0.978" fill="#000000" d="M 240.5,-0.5 C 250.5,-0.5 260.5,-0.5 270.5,-0.5C 285.873,1.79063 300.54,6.62397 314.5,14C 333.589,27.255 352.256,41.0884 370.5,55.5C 371.332,45.5166 371.832,35.5166 372,25.5C 373.736,18.7634 377.903,14.2634 384.5,12C 393.671,9.69783 401.504,11.8645 408,18.5C 409.275,20.7173 410.275,23.0506 411,25.5C 411.974,52.5621 411.64,79.5621 410,106.5C 403.505,117 394.339,120.166 382.5,116C 353.988,94.9098 325.654,73.5765 297.5,52C 266.67,35.5345 236.67,36.8678 207.5,56C 161.118,92.05 114.451,127.717 67.5,163C 49.859,179.234 40.6924,199.4 40,223.5C 39.0477,283.517 39.3811,343.517 41,403.5C 48.491,440.324 70.6577,462.491 107.5,470C 206.167,470.667 304.833,470.667 403.5,470C 432.572,464.584 453.072,448.418 465,421.5C 468.795,411.859 470.795,401.859 471,391.5C 471.667,335.5 471.667,279.5 471,223.5C 470.765,206.796 466.098,191.463 457,177.5C 450.297,169.166 442.964,161.499 435,154.5C 428.796,140.849 432.296,130.682 445.5,124C 450.167,123.333 454.833,123.333 459.5,124C 480.38,137.563 495.214,156.063 504,179.5C 507.154,188.793 509.654,198.127 511.5,207.5C 511.5,273.833 511.5,340.167 511.5,406.5C 500.167,465.167 465.167,500.167 406.5,511.5C 305.833,511.5 205.167,511.5 104.5,511.5C 46.2898,500.29 11.2898,465.623 -0.5,407.5C -0.5,340.833 -0.5,274.167 -0.5,207.5C 4.2924,176.419 18.6257,150.585 42.5,130C 92.1667,92.3333 141.833,54.6667 191.5,17C 206.76,7.85994 223.093,2.0266 240.5,-0.5 Z"/></g>
<g><path style="opacity:0.958" fill="#000000" d="M 214.5,229.5 C 234.041,231.9 242.541,242.9 240,262.5C 234.494,277.009 223.994,282.842 208.5,280C 193.991,274.494 188.158,263.994 191,248.5C 194.951,237.285 202.784,230.951 214.5,229.5 Z"/></g>
<g><path style="opacity:0.957" fill="#000000" d="M 288.5,230.5 C 311.647,228.813 322.147,239.48 320,262.5C 314.494,277.009 303.994,282.842 288.5,280C 273.991,274.494 268.158,263.994 271,248.5C 273.683,239.318 279.517,233.318 288.5,230.5 Z"/></g>
<g><path style="opacity:0.957" fill="#000000" d="M 208.5,310.5 C 231.647,308.813 242.147,319.48 240,342.5C 234.494,357.009 223.994,362.842 208.5,360C 193.991,354.494 188.158,343.994 191,328.5C 193.683,319.318 199.517,313.318 208.5,310.5 Z"/></g>
<g><path style="opacity:0.957" fill="#000000" d="M 288.5,310.5 C 311.647,308.813 322.147,319.48 320,342.5C 314.494,357.009 303.994,362.842 288.5,360C 273.991,354.494 268.158,343.994 271,328.5C 273.683,319.318 279.517,313.318 288.5,310.5 Z"/></g>
</svg>
