<?xml version="1.0" encoding="UTF-8"?>
<!DOCTYPE svg PUBLIC "-//W3C//DTD SVG 1.1//EN" "http://www.w3.org/Graphics/SVG/1.1/DTD/svg11.dtd">
<svg xmlns="http://www.w3.org/2000/svg" version="1.1" width="512px" height="512px" style="shape-rendering:geometricPrecision; text-rendering:geometricPrecision; image-rendering:optimizeQuality; fill-rule:evenodd; clip-rule:evenodd" xmlns:xlink="http://www.w3.org/1999/xlink">
<g><path style="opacity:0.971" fill="#000000" d="M 116.5,-0.5 C 124.167,-0.5 131.833,-0.5 139.5,-0.5C 153.493,2.32808 166.16,8.16142 177.5,17C 192.333,32.5 207.167,48 222,63.5C 238.135,87.3173 240.802,112.651 230,139.5C 223.7,152.469 214.533,162.969 202.5,171C 190.013,176.744 177.68,182.744 165.5,189C 153.547,199.525 148.713,212.691 151,228.5C 154.377,243.585 160.71,257.251 170,269.5C 191.167,297.333 215.667,321.833 243.5,343C 256.901,353.033 271.901,359.2 288.5,361.5C 302.329,360.502 313.829,354.836 323,344.5C 329.333,331.5 335.667,318.5 342,305.5C 366.108,275.928 396.275,267.428 432.5,280C 438.834,283.165 444.834,286.831 450.5,291C 465.638,305.137 480.471,319.637 495,334.5C 503.561,345.944 509.061,358.611 511.5,372.5C 511.5,379.167 511.5,385.833 511.5,392.5C 508.97,406.899 503.137,419.899 494,431.5C 456.684,477.074 408.85,503.74 350.5,511.5C 337.5,511.5 324.5,511.5 311.5,511.5C 259.115,504.478 211.115,485.978 167.5,456C 105.25,413.425 57.7495,358.258 25,290.5C 11.4642,260.748 2.96421,229.748 -0.5,197.5C -0.5,185.5 -0.5,173.5 -0.5,161.5C 4.43285,112.97 23.9328,71.3032 58,36.5C 69.6003,23.4624 83.1003,12.9624 98.5,5C 104.531,2.83236 110.531,0.999023 116.5,-0.5 Z M 120.5,40.5 C 130.169,39.2398 139.169,41.0731 147.5,46C 161.696,59.8621 175.529,74.0287 189,88.5C 197.618,101.818 197.618,115.151 189,128.5C 186.463,131.372 183.63,133.872 180.5,136C 164.951,142.107 150.284,149.773 136.5,159C 107.989,188.547 101.823,222.381 118,260.5C 127.682,281.886 140.349,301.219 156,318.5C 175.333,339.508 196.166,358.674 218.5,376C 235.669,388.416 254.669,396.749 275.5,401C 306.564,404.758 332.731,395.258 354,372.5C 362.641,358.886 369.974,344.552 376,329.5C 386.625,315.963 400.125,312.129 416.5,318C 420.11,319.944 423.443,322.277 426.5,325C 438.029,336.863 449.862,348.363 462,359.5C 472.094,372.81 473.094,386.81 465,401.5C 414.422,464.022 350.255,484.189 272.5,462C 241.103,451.802 212.103,437.136 185.5,418C 127.382,375.905 83.8823,322.071 55,256.5C 23.2417,174.032 40.7417,104.199 107.5,47C 111.647,44.2599 115.98,42.0933 120.5,40.5 Z"/></g>
<g><path style="opacity:0.968" fill="#000000" d="M 285.5,-0.5 C 291.5,-0.5 297.5,-0.5 303.5,-0.5C 392.182,14.6745 455.682,63.0078 494,144.5C 502.83,165.495 508.663,187.161 511.5,209.5C 511.5,214.5 511.5,219.5 511.5,224.5C 504.075,238.919 493.075,242.419 478.5,235C 475.457,232.407 473.29,229.24 472,225.5C 464.097,152.673 428.597,98.1728 365.5,62C 340.314,49.2725 313.648,41.6059 285.5,39C 276.795,35.4322 272.129,28.9322 271.5,19.5C 272.247,9.98033 276.914,3.31367 285.5,-0.5 Z"/></g>
<g><path style="opacity:0.966" fill="#000000" d="M 285.5,79.5 C 334.642,83.3171 373.808,104.984 403,144.5C 420.302,168.407 429.635,195.073 431,224.5C 425.906,236.628 417.073,241.128 404.5,238C 397.137,235.305 392.637,230.138 391,222.5C 381.195,170.694 351.029,137.194 300.5,122C 290.515,121.89 282.015,118.39 275,111.5C 268.663,97.4933 272.163,86.8266 285.5,79.5 Z"/></g>
<g><path style="opacity:0.961" fill="#000000" d="M 285.5,161.5 C 294.501,160.335 302.835,162.168 310.5,167C 331.181,178.889 344.181,196.389 349.5,219.5C 346.515,237.156 336.515,243.322 319.5,238C 317.04,236.542 314.873,234.709 313,232.5C 309.381,222.756 303.881,214.256 296.5,207C 290.992,203.745 285.325,200.745 279.5,198C 270.375,189.123 269.208,179.29 276,168.5C 278.79,165.535 281.957,163.202 285.5,161.5 Z"/></g>
</svg>
