<?xml version="1.0" encoding="UTF-8"?>
<!DOCTYPE svg PUBLIC "-//W3C//DTD SVG 1.1//EN" "http://www.w3.org/Graphics/SVG/1.1/DTD/svg11.dtd">
<svg xmlns="http://www.w3.org/2000/svg" version="1.1" width="512px" height="512px" style="shape-rendering:geometricPrecision; text-rendering:geometricPrecision; image-rendering:optimizeQuality; fill-rule:evenodd; clip-rule:evenodd" xmlns:xlink="http://www.w3.org/1999/xlink">
<g><path style="opacity:0.971" fill="#000000" d="M 236.5,-0.5 C 249.167,-0.5 261.833,-0.5 274.5,-0.5C 374.158,9.67726 445.992,59.6773 490,149.5C 501.414,175.496 508.581,202.496 511.5,230.5C 511.5,245.5 511.5,260.5 511.5,275.5C 501.131,364.303 458.131,432.136 382.5,479C 349.007,497.446 313.341,508.279 275.5,511.5C 262.167,511.5 248.833,511.5 235.5,511.5C 136.526,500.342 65.3594,450.009 22,360.5C 10.2522,333.169 2.75219,304.836 -0.5,275.5C -0.5,260.5 -0.5,245.5 -0.5,230.5C 9.81167,148.393 49.145,84.2266 117.5,38C 154.165,15.6108 193.832,2.77744 236.5,-0.5 Z M 244.5,39.5 C 318.83,38.2563 379.33,66.2563 426,123.5C 470.292,183.649 481.625,249.649 460,321.5C 437.688,389.813 392.521,435.646 324.5,459C 255.12,479.422 190.12,470.089 129.5,431C 82.6206,396.451 54.1206,350.284 44,292.5C 31.593,204.006 60.7596,132.839 131.5,79C 165.689,55.7709 203.356,42.6043 244.5,39.5 Z"/></g>
<g><path style="opacity:0.982" fill="#000000" d="M 252.5,94.5 C 263.23,94.0776 270.73,98.7442 275,108.5C 275.333,149.833 275.667,191.167 276,232.5C 282.83,238.977 286.163,246.977 286,256.5C 307.667,278.167 329.333,299.833 351,321.5C 357.67,334.308 355.17,344.808 343.5,353C 336.135,355.47 329.135,354.804 322.5,351C 300.833,329.333 279.167,307.667 257.5,286C 242.957,286.155 232.791,279.655 227,266.5C 222.839,253.418 225.506,242.085 235,232.5C 235.333,191.167 235.667,149.833 236,108.5C 238.981,100.674 244.481,96.0069 252.5,94.5 Z"/></g>
</svg>
