<?xml version="1.0" encoding="UTF-8"?>
<!DOCTYPE svg PUBLIC "-//W3C//DTD SVG 1.1//EN" "http://www.w3.org/Graphics/SVG/1.1/DTD/svg11.dtd">
<svg xmlns="http://www.w3.org/2000/svg" version="1.1" width="512px" height="512px" style="shape-rendering:geometricPrecision; text-rendering:geometricPrecision; image-rendering:optimizeQuality; fill-rule:evenodd; clip-rule:evenodd" xmlns:xlink="http://www.w3.org/1999/xlink">
<g><path style="opacity:0.987" fill="#000000" d="M 511.5,157.5 C 511.5,222.5 511.5,287.5 511.5,352.5C 502.753,402.457 474.42,435.957 426.5,453C 419.935,454.846 413.269,456.18 406.5,457C 305.833,457.667 205.167,457.667 104.5,457C 54.3101,448.659 20.8101,420.492 4,372.5C 2.4148,366.05 0.914796,359.717 -0.5,353.5C -0.5,288.167 -0.5,222.833 -0.5,157.5C 8.54009,107.957 36.8734,74.7899 84.5,58C 91.0646,56.1537 97.7313,54.8204 104.5,54C 205.167,53.3333 305.833,53.3333 406.5,54C 454.142,61.6479 486.976,87.8145 505,132.5C 507.667,140.838 509.833,149.172 511.5,157.5 Z M 118.5,93.5 C 209.834,93.3333 301.167,93.5 392.5,94C 440.47,98.97 466.637,125.47 471,173.5C 471.951,232.184 471.618,290.851 470,349.5C 463.244,384.255 442.744,406.089 408.5,415C 403.215,416.026 397.882,416.693 392.5,417C 301.167,417.667 209.833,417.667 118.5,417C 82.0626,414.545 57.2292,396.378 44,362.5C 42.8423,358.203 41.8423,353.869 41,349.5C 39.8821,318.185 39.3821,286.852 39.5,255.5C 39.3821,224.148 39.8821,192.815 41,161.5C 47.7558,126.745 68.2558,104.911 102.5,96C 107.972,95.1329 113.306,94.2996 118.5,93.5 Z"/></g>
<g><path style="opacity:0.968" fill="#000000" d="M 408.5,179.5 C 428.65,177.483 437.483,186.483 435,206.5C 433.561,209.603 431.727,212.436 429.5,215C 393.5,242.333 357.5,269.667 321.5,297C 286.913,317.474 250.58,321.14 212.5,308C 200.894,303.534 190.227,297.534 180.5,290C 149.12,264.951 117.453,240.285 85.5,216C 79.7976,209.555 77.9643,202.055 80,193.5C 85.3426,182.248 94.1759,178.081 106.5,181C 138.737,204.567 170.403,228.901 201.5,254C 227.692,275.643 256.692,280.309 288.5,268C 293.167,265.333 297.833,262.667 302.5,260C 337.45,232.536 372.783,205.702 408.5,179.5 Z"/></g>
</svg>
