<?xml version="1.0" encoding="UTF-8"?>
<!DOCTYPE svg PUBLIC "-//W3C//DTD SVG 1.1//EN" "http://www.w3.org/Graphics/SVG/1.1/DTD/svg11.dtd">
<svg xmlns="http://www.w3.org/2000/svg" version="1.1" width="512px" height="512px" style="shape-rendering:geometricPrecision; text-rendering:geometricPrecision; image-rendering:optimizeQuality; fill-rule:evenodd; clip-rule:evenodd" xmlns:xlink="http://www.w3.org/1999/xlink">
<g><path style="opacity:0.969" fill="#000000" d="M 185.5,-0.5 C 198.833,-0.5 212.167,-0.5 225.5,-0.5C 304.273,10.7831 360.44,52.4498 394,124.5C 397.083,131.581 399.25,138.914 400.5,146.5C 396.912,165.129 386.246,170.962 368.5,164C 366.667,162.167 364.833,160.333 363,158.5C 343.977,101.477 305.811,63.9769 248.5,46C 193.128,32.4055 143.128,43.0721 98.5,78C 50.7857,122.476 32.619,176.976 44,241.5C 56.3838,291.216 85.2171,328.05 130.5,352C 136.527,358.903 138.027,366.736 135,375.5C 128.791,386.462 119.625,389.962 107.5,386C 43.9261,350.706 7.92608,296.873 -0.5,224.5C -0.5,212.833 -0.5,201.167 -0.5,189.5C 6.83736,120.058 39.504,66.2243 97.5,28C 124.832,12.0069 154.166,2.50688 185.5,-0.5 Z"/></g>
<g><path style="opacity:0.969" fill="#000000" d="M 201.5,103.5 C 219.754,101.198 228.92,109.198 229,127.5C 235.214,129.461 241.381,131.627 247.5,134C 259.12,141.878 261.62,152.045 255,164.5C 248.852,171.993 241.018,174.493 231.5,172C 220.375,166.775 208.708,164.775 196.5,166C 191.431,168.957 189.931,173.124 192,178.5C 194.469,180.652 197.302,182.152 200.5,183C 216.829,182.743 231.495,187.41 244.5,197C 260.462,212.121 265.295,230.288 259,251.5C 253.673,265.993 243.839,275.993 229.5,281.5C 228.398,299.22 219.064,306.72 201.5,304C 192.186,299.674 187.186,292.34 186.5,282C 176.074,279.895 166.074,276.561 156.5,272C 147.409,263.107 146.243,253.274 153,242.5C 159.145,235.912 166.645,233.745 175.5,236C 187.988,241.374 200.988,243.707 214.5,243C 221.986,238.092 222.319,232.759 215.5,227C 206.923,225.16 198.257,223.827 189.5,223C 166.761,216.598 153.594,201.764 150,178.5C 149.173,151.992 161.34,134.492 186.5,126C 187.395,115.631 192.395,108.131 201.5,103.5 Z"/></g>
<g><path style="opacity:0.976" fill="#000000" d="M 511.5,253.5 C 511.5,276.833 511.5,300.167 511.5,323.5C 504.175,337.885 493.175,341.385 478.5,334C 474.743,330.579 472.243,326.412 471,321.5C 470.667,300.5 470.333,279.5 470,258.5C 466.776,249.946 460.609,245.112 451.5,244C 431.167,243.667 410.833,243.333 390.5,243C 381.795,239.432 377.129,232.932 376.5,223.5C 377.129,214.068 381.795,207.568 390.5,204C 414.5,203.333 438.5,203.333 462.5,204C 489.118,210.45 505.451,226.95 511.5,253.5 Z"/></g>
<g><path style="opacity:0.968" fill="#000000" d="M 107.5,511.5 C 103.167,511.5 98.8333,511.5 94.5,511.5C 80.7234,504.336 77.2234,493.669 84,479.5C 124.861,438.306 166.028,397.472 207.5,357C 230.873,341.717 255.539,339.384 281.5,350C 287.844,353.504 293.844,357.504 299.5,362C 313.513,368.358 326.013,366.191 337,355.5C 360.8,329.365 384.967,303.532 409.5,278C 422.308,271.33 432.808,273.83 441,285.5C 443.473,292.829 442.806,299.829 439,306.5C 412.866,334.969 386.366,363.135 359.5,391C 337.55,407.37 313.55,411.037 287.5,402C 277.468,396.319 267.468,390.653 257.5,385C 248.488,382.957 240.154,384.624 232.5,390C 192.528,428.972 152.861,468.305 113.5,508C 111.273,508.941 109.273,510.108 107.5,511.5 Z"/></g>
<g><path style="opacity:0.968" fill="#000000" d="M 511.5,391.5 C 511.5,426.5 511.5,461.5 511.5,496.5C 509.26,503.741 504.593,508.741 497.5,511.5C 493.167,511.5 488.833,511.5 484.5,511.5C 476.882,508.375 472.382,502.708 471,494.5C 470.333,460.833 470.333,427.167 471,393.5C 473.526,382.972 480.193,377.639 491,377.5C 495.077,377.273 498.91,378.107 502.5,380C 506.509,383.161 509.509,386.994 511.5,391.5 Z"/></g>
<g><path style="opacity:0.967" fill="#000000" d="M 417.5,511.5 C 413.167,511.5 408.833,511.5 404.5,511.5C 396.882,508.375 392.382,502.708 391,494.5C 390.333,468.5 390.333,442.5 391,416.5C 393.526,405.972 400.193,400.639 411,400.5C 420.944,400.439 427.611,405.106 431,414.5C 431.667,441.833 431.667,469.167 431,496.5C 429.077,503.918 424.577,508.918 417.5,511.5 Z"/></g>
<g><path style="opacity:0.963" fill="#000000" d="M 257.5,511.5 C 253.167,511.5 248.833,511.5 244.5,511.5C 236.882,508.375 232.382,502.708 231,494.5C 230.333,477.5 230.333,460.5 231,443.5C 233.526,432.972 240.193,427.639 251,427.5C 260.944,427.439 267.611,432.106 271,441.5C 271.667,459.833 271.667,478.167 271,496.5C 269.077,503.918 264.577,508.918 257.5,511.5 Z"/></g>
<g><path style="opacity:0.96" fill="#000000" d="M 337.5,511.5 C 333.167,511.5 328.833,511.5 324.5,511.5C 318.494,508.993 314.327,504.659 312,498.5C 310.414,485.89 310.08,473.224 311,460.5C 313.526,449.972 320.193,444.639 331,444.5C 340.944,444.439 347.611,449.106 351,458.5C 351.667,471.167 351.667,483.833 351,496.5C 349.077,503.918 344.577,508.918 337.5,511.5 Z"/></g>
</svg>
