<?xml version="1.0" encoding="UTF-8"?>
<!DOCTYPE svg PUBLIC "-//W3C//DTD SVG 1.1//EN" "http://www.w3.org/Graphics/SVG/1.1/DTD/svg11.dtd">
<svg xmlns="http://www.w3.org/2000/svg" version="1.1" width="512px" height="512px" style="shape-rendering:geometricPrecision; text-rendering:geometricPrecision; image-rendering:optimizeQuality; fill-rule:evenodd; clip-rule:evenodd" xmlns:xlink="http://www.w3.org/1999/xlink">
<g><path style="opacity:0.989" fill="#000000" d="M 104.5,-0.5 C 205.167,-0.5 305.833,-0.5 406.5,-0.5C 464.71,10.7101 499.71,45.3768 511.5,103.5C 511.5,204.5 511.5,305.5 511.5,406.5C 502.753,456.457 474.42,489.957 426.5,507C 419.741,508.715 413.075,510.215 406.5,511.5C 305.833,511.5 205.167,511.5 104.5,511.5C 46.2898,500.29 11.2898,465.623 -0.5,407.5C -0.5,306.167 -0.5,204.833 -0.5,103.5C 11.2898,45.3768 46.2898,10.7101 104.5,-0.5 Z M 118.5,39.5 C 213.518,39.0268 308.518,39.5268 403.5,41C 434.453,47.2909 455.619,65.1242 467,94.5C 469.496,102.648 470.83,110.981 471,119.5C 471.667,210.167 471.667,300.833 471,391.5C 466.637,439.53 440.47,466.03 392.5,471C 301.167,471.667 209.833,471.667 118.5,471C 70.53,466.03 44.3633,439.53 40,391.5C 39.0295,296.817 39.3628,202.151 41,107.5C 47.7558,72.7446 68.2558,50.9113 102.5,42C 107.972,41.1329 113.306,40.2996 118.5,39.5 Z M 254.5,165.5 C 298.9,168.08 328.067,190.413 342,232.5C 349.664,269.037 339.831,299.87 312.5,325C 283.42,346.01 252.087,350.01 218.5,337C 180.341,317.196 163.174,285.696 167,242.5C 174.64,203.193 197.807,178.359 236.5,168C 242.647,167.162 248.647,166.329 254.5,165.5 Z"/></g>
<g><path style="opacity:0.961" fill="#000000" d="M 389.5,89.5 C 412.647,87.8131 423.147,98.4797 421,121.5C 415.494,136.009 404.994,141.842 389.5,139C 374.991,133.494 369.158,122.994 372,107.5C 374.683,98.318 380.517,92.318 389.5,89.5 Z"/></g>
<g><path style="opacity:0.971" fill="#000000" d="M 246.5,125.5 C 293.695,123.522 331.861,140.856 361,177.5C 388.079,218.728 392.745,262.395 375,308.5C 347.015,363.921 301.848,389.421 239.5,385C 183.96,376.126 147.46,344.96 130,291.5C 119.097,246.003 128.097,205.003 157,168.5C 181.372,142.73 211.205,128.397 246.5,125.5 Z M 254.5,165.5 C 248.647,166.329 242.647,167.162 236.5,168C 197.807,178.359 174.64,203.193 167,242.5C 163.174,285.696 180.341,317.196 218.5,337C 252.087,350.01 283.42,346.01 312.5,325C 339.831,299.87 349.664,269.037 342,232.5C 328.067,190.413 298.9,168.08 254.5,165.5 Z"/></g>
</svg>
