<?xml version="1.0" encoding="UTF-8"?>
<!DOCTYPE svg PUBLIC "-//W3C//DTD SVG 1.1//EN" "http://www.w3.org/Graphics/SVG/1.1/DTD/svg11.dtd">
<svg xmlns="http://www.w3.org/2000/svg" version="1.1" width="512px" height="512px" style="shape-rendering:geometricPrecision; text-rendering:geometricPrecision; image-rendering:optimizeQuality; fill-rule:evenodd; clip-rule:evenodd" xmlns:xlink="http://www.w3.org/1999/xlink">
<g><path style="opacity:0.974" fill="#000000" d="M 235.5,-0.5 C 250.5,-0.5 265.5,-0.5 280.5,-0.5C 366.916,10.1266 432.749,52.4599 478,126.5C 496.588,158.879 507.755,193.546 511.5,230.5C 511.5,245.5 511.5,260.5 511.5,275.5C 501.132,364.302 458.132,432.135 382.5,479C 349.634,497.127 314.634,507.96 277.5,511.5C 262.167,511.5 246.833,511.5 231.5,511.5C 205.819,508.663 180.819,502.497 156.5,493C 145.847,487.506 134.847,482.84 123.5,479C 88.0977,471.023 58.0977,480.357 33.5,507C 30.9007,508.795 28.2341,510.295 25.5,511.5C 21.5,511.5 17.5,511.5 13.5,511.5C 6.9222,509.257 2.25553,504.923 -0.5,498.5C -0.5,409.833 -0.5,321.167 -0.5,232.5C 8.62388,150.59 47.2905,86.7566 115.5,41C 152.423,18.0821 192.423,4.24873 235.5,-0.5 Z M 254.5,39.5 C 346.018,43.2371 412.184,85.9037 453,167.5C 484.286,249.107 473.286,324.44 420,393.5C 366.42,454.692 299.253,479.526 218.5,468C 205.512,465.893 192.845,462.56 180.5,458C 166.282,451.724 151.948,445.724 137.5,440C 103.98,431.027 71.6465,434.194 40.5,449.5C 39.7536,406.163 39.4203,363.83 39.5,322.5C 40.3253,293.542 40.8253,264.542 41,235.5C 51.5051,153.359 94.0051,94.5258 168.5,59C 196.078,47.1025 224.745,40.6025 254.5,39.5 Z"/></g>
<g><path style="opacity:0.959" fill="#000000" d="M 163.5,230.5 C 186.647,228.813 197.147,239.48 195,262.5C 189.494,277.009 178.994,282.842 163.5,280C 148.991,274.494 143.158,263.994 146,248.5C 148.683,239.318 154.517,233.318 163.5,230.5 Z"/></g>
<g><path style="opacity:0.958" fill="#000000" d="M 249.5,230.5 C 272.647,228.813 283.147,239.48 281,262.5C 275.494,277.009 264.994,282.842 249.5,280C 237.547,276.287 231.213,268.12 230.5,255.5C 231.811,243.157 238.145,234.824 249.5,230.5 Z"/></g>
<g><path style="opacity:0.958" fill="#000000" d="M 335.5,230.5 C 358.647,228.813 369.147,239.48 367,262.5C 361.494,277.009 350.994,282.842 335.5,280C 323.547,276.287 317.213,268.12 316.5,255.5C 317.811,243.157 324.145,234.824 335.5,230.5 Z"/></g>
</svg>
