<?xml version="1.0" standalone="no"?>
<!DOCTYPE svg PUBLIC "-//W3C//DTD SVG 20010904//EN"
 "http://www.w3.org/TR/2001/REC-SVG-20010904/DTD/svg10.dtd">
<svg version="1.0" xmlns="http://www.w3.org/2000/svg"
 width="512.000000pt" height="512.000000pt" viewBox="0 0 512.000000 512.000000"
 preserveAspectRatio="xMidYMid meet">

<g transform="translate(0.000000,512.000000) scale(0.100000,-0.100000)"
fill="#000000" stroke="none">
<path d="M430 4524 c-209 -45 -385 -227 -420 -434 -8 -46 -10 -508 -8 -1570
l3 -1505 26 -67 c73 -186 219 -314 404 -353 105 -22 4145 -22 4250 0 188 40
343 178 407 363 l23 67 0 1535 0 1535 -23 67 c-64 185 -219 323 -407 363 -103
22 -4155 21 -4255 -1z m1215 -1011 c499 -439 911 -798 915 -798 5 0 417 359
917 799 l908 798 125 -5 c150 -7 202 -22 269 -83 52 -47 105 -138 99 -172 -3
-19 -2300 -2072 -2318 -2072 -16 0 -2315 2053 -2318 2071 -5 29 33 104 78 153
73 79 146 103 321 105 l97 1 907 -797z m2375 793 c0 -7 -1452 -1281 -1460
-1281 -8 0 -1460 1274 -1460 1281 0 2 657 4 1460 4 803 0 1460 -2 1460 -4z
m-3477 -850 l267 -238 0 -1205 0 -1206 -162 6 c-117 3 -176 10 -210 22 -65 23
-141 94 -175 163 l-28 57 -3 1339 -2 1340 22 -20 c13 -12 143 -128 291 -258z
m4345 -1326 l-3 -1075 -28 -57 c-34 -69 -110 -140 -175 -163 -34 -12 -93 -19
-209 -22 l-163 -6 0 1206 0 1205 288 255 287 256 3 -262 c1 -144 1 -746 0
-1337z m-3066 187 c400 -356 732 -647 738 -647 8 0 1185 1040 1488 1313 l22
20 0 -1096 0 -1097 -1510 0 -1510 0 0 1097 0 1096 23 -20 c12 -11 349 -311
749 -666z"/>
</g>
</svg>
