<svg xmlns="http://www.w3.org/2000/svg" style="display:none;">
  <symbol id="icon-logo" viewBox="0 0 500 500">
    <path d="M259.275 127.946 C 234.211 139.804,213.460 165.268,207.041 192.044 C 203.350 207.441,204.516 227.020,210.127 243.881 C 211.855 249.073,212.443 249.960,213.229 248.555 C 213.763 247.602,213.956 245.624,213.660 244.161 C 211.859 235.279,219.212 215.116,228.190 204.316 C 237.819 192.734,255.065 182.240,271.500 177.964 C 277.870 176.306,282.396 175.895,293.713 175.944 C 301.531 175.978,310.306 176.491,313.213 177.084 C 330.370 180.585,349.660 191.295,360.668 203.431 C 367.195 210.627,367.088 209.199,360.027 194.843 C 345.538 165.385,321.553 141.594,295.250 130.589 C 279.743 124.102,269.061 123.317,259.275 127.946 M192.500 137.109 C 161.643 152.939,139.622 177.114,130.064 205.648 C 127.559 213.125,127.000 216.421,127.000 223.700 C 127.000 232.002,127.262 233.144,130.867 240.553 C 145.006 269.609,174.721 290.668,206.500 294.154 C 225.856 296.277,240.636 293.968,254.510 286.651 L 259.500 284.019 254.000 284.590 C 250.975 284.904,247.975 285.321,247.334 285.517 C 245.349 286.123,233.191 284.089,227.710 282.234 C 216.877 278.570,203.086 267.252,194.829 255.251 C 190.629 249.147,184.762 236.930,182.222 229.000 C 174.652 205.366,176.469 175.893,186.755 155.500 C 190.064 148.940,196.116 140.114,199.389 137.076 C 201.954 134.694,202.729 132.998,201.250 133.002 C 200.838 133.003,196.900 134.851,192.500 137.109 M263.500 205.418 C 262.950 205.630,258.486 207.011,253.579 208.487 C 243.120 211.634,243.536 212.954,255.000 212.998 C 263.337 213.030,275.293 216.586,282.534 221.188 C 298.126 231.098,313.060 251.863,318.895 271.746 C 324.897 292.198,324.706 315.510,318.373 335.500 C 316.275 342.123,309.439 355.587,305.861 360.144 C 304.288 362.148,303.000 364.102,303.000 364.486 C 303.000 365.402,314.157 359.245,323.271 353.298 C 333.488 346.632,349.454 330.411,356.780 319.254 C 368.024 302.130,372.002 291.676,372.735 277.322 C 373.238 267.483,373.151 266.920,370.113 260.428 C 365.745 251.093,359.564 242.802,350.357 233.925 C 337.743 221.763,326.013 214.687,308.723 208.808 C 299.999 205.842,298.553 205.655,282.000 205.353 C 272.375 205.177,264.050 205.207,263.500 205.418 M285.014 257.000 C 284.968 266.401,284.534 269.687,282.636 275.000 C 279.583 283.547,276.548 288.734,270.655 295.482 C 249.658 319.522,212.130 328.933,179.000 318.465 C 163.629 313.608,154.165 308.287,141.099 297.157 C 138.294 294.768,136.000 293.290,136.000 293.872 C 136.000 294.455,137.654 297.984,139.676 301.716 C 149.877 320.542,165.628 339.269,180.500 350.253 C 195.651 361.444,217.509 370.010,230.862 369.990 C 242.381 369.973,254.173 362.893,269.656 346.698 C 277.443 338.553,279.560 335.552,284.372 325.842 C 293.458 307.504,296.423 291.706,294.015 274.455 C 292.735 265.289,289.101 252.465,286.517 248.000 C 285.192 245.710,285.066 246.467,285.014 257.000 " stroke="none" fill="#4ba5e5" fill-rule="evenodd"/>
    <path d="M244.046 89.800 C 240.670 93.176,240.276 95.698,242.463 99.928 C 246.324 107.394,258.000 104.184,258.000 95.656 C 258.000 91.125,255.357 88.076,250.796 87.346 C 247.594 86.834,246.680 87.166,244.046 89.800 M271.315 88.007 C 263.467 91.169,266.824 104.000,275.500 104.000 C 283.373 104.000,286.716 95.562,281.077 89.923 C 278.108 86.954,275.298 86.402,271.315 88.007 M296.750 88.080 C 294.073 89.640,291.870 94.633,292.591 97.507 C 293.458 100.960,297.610 104.000,301.461 104.000 C 305.837 104.000,309.400 100.115,309.400 95.343 C 309.400 89.146,302.108 84.959,296.750 88.080 M142.229 113.669 C 141.530 113.951,140.264 115.523,139.416 117.163 C 137.434 120.995,138.357 125.349,141.712 127.988 C 149.987 134.497,160.239 123.206,153.026 115.527 C 150.729 113.083,145.796 112.234,142.229 113.669 M218.565 114.578 C 214.206 118.937,214.267 124.492,218.712 127.988 C 225.999 133.720,235.871 125.453,231.600 117.194 C 230.761 115.571,229.346 113.963,228.455 113.621 C 225.463 112.473,220.156 112.986,218.565 114.578 M243.455 115.455 C 239.969 118.940,240.191 123.345,244.046 127.200 C 246.680 129.834,247.594 130.166,250.796 129.654 C 255.445 128.909,258.000 125.863,258.000 121.064 C 258.000 113.570,248.862 110.047,243.455 115.455 M269.073 115.635 C 267.933 117.084,267.000 119.687,267.000 121.420 L 267.000 124.570 275.250 124.535 L 283.500 124.500 283.812 121.267 C 284.523 113.898,273.694 109.760,269.073 115.635 M294.974 115.527 C 291.565 119.156,291.734 124.515,295.356 127.630 C 302.638 133.893,313.010 125.721,308.600 117.194 C 305.986 112.139,298.964 111.280,294.974 115.527 M321.262 114.529 C 318.635 116.369,317.381 121.975,318.944 124.895 C 323.393 133.209,335.480 130.188,335.214 120.828 C 335.028 114.286,326.869 110.602,321.262 114.529 M347.000 116.000 C 344.215 118.785,344.368 124.057,347.314 126.826 C 352.229 131.442,360.000 127.987,360.000 121.186 C 360.000 116.916,356.956 114.000,352.500 114.000 C 350.333 114.000,348.238 114.762,347.000 116.000 M118.091 139.069 C 112.483 141.361,111.104 148.870,115.527 153.026 C 120.931 158.102,130.000 154.326,130.000 147.000 C 130.000 141.300,123.394 136.901,118.091 139.069 M143.302 139.012 C 140.270 140.233,137.672 145.555,138.497 148.858 C 140.572 157.174,151.007 158.247,154.691 150.523 C 156.264 147.224,156.264 146.776,154.691 143.477 C 152.432 138.742,148.146 137.061,143.302 139.012 M220.249 138.994 C 219.011 139.512,217.240 141.526,216.314 143.468 C 214.736 146.777,214.736 147.223,216.309 150.523 C 217.233 152.460,219.154 154.488,220.577 155.029 C 222.896 155.911,223.625 155.541,227.583 151.468 C 232.372 146.541,233.142 143.343,230.184 140.667 C 227.871 138.573,223.151 137.778,220.249 138.994 M323.465 138.952 C 322.346 139.405,320.808 140.526,320.048 141.443 C 318.845 142.892,318.965 143.395,320.970 145.305 C 322.238 146.512,322.946 146.825,322.544 146.000 C 322.142 145.175,323.469 146.415,325.493 148.755 C 327.518 151.095,329.554 152.776,330.018 152.489 C 330.482 152.202,331.161 152.452,331.527 153.044 C 332.594 154.771,334.932 150.890,334.968 147.332 C 335.014 142.815,334.147 141.127,330.928 139.463 C 327.779 137.834,326.447 137.743,323.465 138.952 M350.000 138.685 C 340.683 142.220,342.778 155.400,352.657 155.400 C 357.034 155.400,361.000 151.407,361.000 147.000 C 361.000 141.841,354.545 136.961,350.000 138.685 M194.750 143.650 C 192.688 146.194,191.000 148.856,191.000 149.565 C 191.000 151.505,195.939 155.000,198.680 155.000 C 204.450 155.000,208.089 146.637,204.250 142.198 C 200.896 138.319,198.814 138.637,194.750 143.650 M374.200 143.200 C 373.540 143.860,373.000 145.570,373.000 147.000 C 373.000 150.305,374.695 152.000,378.000 152.000 C 381.305 152.000,383.000 150.305,383.000 147.000 C 383.000 143.695,381.305 142.000,378.000 142.000 C 376.570 142.000,374.860 142.540,374.200 143.200 M92.030 165.255 C 84.096 169.347,86.698 181.000,95.545 181.000 C 102.827 181.000,106.547 172.962,101.750 167.593 C 98.961 164.472,95.270 163.584,92.030 165.255 M117.315 165.007 C 112.555 166.925,111.369 175.119,115.314 178.826 C 118.580 181.894,124.329 181.762,127.545 178.545 C 130.986 175.105,130.807 170.653,127.077 166.923 C 124.108 163.954,121.298 163.402,117.315 165.007 M194.315 165.007 C 189.555 166.925,188.369 175.119,192.314 178.826 C 195.580 181.894,201.329 181.762,204.545 178.545 C 207.986 175.105,207.807 170.653,204.077 166.923 C 201.108 163.954,198.298 163.402,194.315 165.007 M373.302 166.501 C 368.461 169.892,369.859 177.855,375.684 180.070 C 378.822 181.263,381.424 180.535,384.034 177.733 C 390.139 171.180,380.710 161.312,373.302 166.501 M143.000 169.000 C 140.731 171.269,140.565 172.318,142.035 175.066 C 143.442 177.695,144.659 177.496,145.407 174.513 C 145.751 173.145,147.176 171.275,148.576 170.359 C 150.494 169.101,150.797 168.488,149.810 167.861 C 147.622 166.474,145.106 166.894,143.000 169.000 M89.455 192.455 C 85.969 195.940,86.191 200.345,90.046 204.200 C 92.680 206.834,93.594 207.166,96.796 206.654 C 101.445 205.909,104.000 202.863,104.000 198.064 C 104.000 190.570,94.862 187.047,89.455 192.455 M115.174 192.314 C 112.496 195.166,112.286 200.905,114.750 203.920 C 115.713 205.097,118.167 206.328,120.204 206.654 C 123.406 207.166,124.320 206.834,126.954 204.200 C 130.809 200.345,131.031 195.940,127.545 192.455 C 124.223 189.132,118.228 189.064,115.174 192.314 M193.794 191.549 C 190.236 193.480,189.070 198.931,191.440 202.549 C 193.903 206.308,197.773 207.479,201.639 205.635 C 204.419 204.310,204.834 203.569,205.177 199.317 C 205.498 195.351,205.171 194.103,203.329 192.250 C 200.762 189.669,197.675 189.442,193.794 191.549 M294.974 192.527 C 292.192 195.489,291.771 201.200,294.159 203.588 C 296.736 206.164,303.112 207.157,305.795 205.399 C 308.601 203.560,310.311 199.377,309.530 196.264 C 307.923 189.862,299.508 187.701,294.974 192.527 M269.557 193.223 C 267.708 195.862,267.512 201.112,269.200 202.800 C 269.860 203.460,272.769 204.000,275.665 204.000 C 281.347 204.000,283.000 202.592,283.000 197.754 C 283.000 191.641,273.021 188.277,269.557 193.223 M323.229 191.669 C 322.530 191.951,321.302 193.450,320.500 195.001 C 317.443 200.912,323.100 207.433,329.255 205.093 C 334.152 203.231,335.369 198.010,331.927 193.635 C 329.940 191.109,326.535 190.339,323.229 191.669 M92.357 215.970 C 86.955 218.204,85.452 225.088,89.370 229.644 C 94.376 235.464,104.000 231.751,104.000 224.000 C 104.000 218.133,97.675 213.771,92.357 215.970 M118.091 216.069 C 114.644 217.477,113.068 219.972,113.032 224.076 C 112.981 229.773,118.984 234.097,124.194 232.116 C 126.554 231.219,126.635 230.890,126.234 223.841 C 126.005 219.803,125.745 216.424,125.657 216.331 C 124.822 215.456,120.000 215.288,118.091 216.069 M326.813 215.683 C 327.534 215.972,328.397 215.936,328.729 215.604 C 329.061 215.272,328.471 215.036,327.417 215.079 C 326.252 215.127,326.015 215.364,326.813 215.683 M350.000 215.685 C 346.673 216.948,344.000 220.406,344.018 223.424 C 344.043 227.645,350.699 233.365,354.482 232.415 C 357.829 231.575,361.000 227.443,361.000 223.921 C 361.000 218.833,354.510 213.974,350.000 215.685 M331.405 217.854 C 333.521 220.238,334.000 220.456,334.000 219.035 C 334.000 218.505,332.988 217.539,331.750 216.890 C 329.512 215.715,329.510 215.720,331.405 217.854 M373.571 219.571 C 372.707 220.436,372.000 222.375,372.000 223.880 C 372.000 227.975,374.198 230.333,378.014 230.333 C 383.917 230.333,386.680 223.934,382.797 219.256 C 381.332 217.490,375.451 217.692,373.571 219.571 M117.315 242.007 C 112.555 243.925,111.369 252.119,115.314 255.826 C 118.580 258.894,124.329 258.762,127.545 255.545 C 130.986 252.105,130.807 247.653,127.077 243.923 C 124.108 240.954,121.298 240.402,117.315 242.007 M373.656 242.133 C 371.279 243.514,368.834 249.363,369.659 251.694 C 370.953 255.350,374.287 258.000,377.593 258.000 C 382.210 258.000,383.872 257.148,385.537 253.928 C 387.707 249.732,387.335 247.181,384.077 243.923 C 380.996 240.842,377.044 240.163,373.656 242.133 M90.655 244.829 C 89.745 245.835,89.000 248.052,89.000 249.756 C 89.000 255.784,96.534 258.771,100.917 254.482 C 102.901 252.540,102.682 247.411,100.512 245.013 C 98.198 242.457,92.891 242.357,90.655 244.829 M115.455 269.455 C 110.272 274.638,113.854 284.000,121.020 284.000 C 125.281 284.000,127.500 282.622,128.976 279.058 C 132.637 270.220,122.143 262.767,115.455 269.455 M140.943 269.903 C 137.129 273.717,137.123 277.277,140.923 281.077 C 144.406 284.559,148.579 284.905,152.253 282.016 C 156.295 278.836,156.563 275.498,153.125 271.157 C 149.190 266.190,145.080 265.766,140.943 269.903 M374.500 267.765 C 373.950 268.169,373.500 271.650,373.500 275.500 C 373.500 279.350,373.950 282.831,374.500 283.235 C 375.050 283.639,376.922 283.976,378.661 283.985 C 382.370 284.003,387.000 279.292,387.000 275.500 C 387.000 271.708,382.370 266.997,378.661 267.015 C 376.922 267.024,375.050 267.361,374.500 267.765 M398.871 268.887 C 391.692 274.534,398.000 286.232,406.485 283.006 C 410.231 281.582,411.929 279.214,411.968 275.361 C 412.036 268.629,404.152 264.733,398.871 268.887 M297.655 271.829 C 295.265 274.470,295.617 277.703,298.500 279.592 C 300.816 281.109,301.184 281.109,303.500 279.592 C 306.472 277.644,306.779 274.015,304.171 271.655 C 301.794 269.504,299.709 269.560,297.655 271.829 M166.861 281.951 C 168.159 283.078,169.622 284.000,170.111 284.000 C 171.859 284.000,170.948 283.026,167.750 281.476 L 164.500 279.901 166.861 281.951 M373.856 293.476 C 368.148 296.664,368.340 305.573,374.181 308.594 C 380.236 311.725,386.455 307.839,386.455 300.925 C 386.455 294.212,379.694 290.215,373.856 293.476 M167.881 294.007 C 164.975 295.705,163.583 300.579,165.016 304.038 C 166.534 307.703,168.716 309.000,173.362 309.000 C 180.195 309.000,183.488 300.397,178.545 295.455 C 175.969 292.878,170.974 292.200,167.881 294.007 M192.237 295.248 C 187.116 300.698,191.064 309.400,198.657 309.400 C 205.053 309.400,209.311 301.543,205.638 296.520 C 204.889 295.496,203.652 294.559,202.888 294.438 C 202.125 294.317,199.919 293.914,197.987 293.542 C 195.071 292.981,194.094 293.271,192.237 295.248 M398.455 295.455 C 396.907 297.002,396.000 299.052,396.000 301.000 C 396.000 304.571,399.824 309.000,402.907 309.000 C 411.323 309.000,415.072 298.157,407.932 294.465 C 403.885 292.372,401.263 292.646,398.455 295.455 M268.872 295.750 C 267.629 297.336,267.664 297.371,269.250 296.128 C 270.916 294.821,271.445 294.000,270.622 294.000 C 270.415 294.000,269.627 294.788,268.872 295.750 M297.571 297.571 C 296.707 298.436,296.000 299.979,296.000 301.000 C 296.000 305.049,301.972 307.628,304.800 304.800 C 307.628 301.972,305.049 296.000,301.000 296.000 C 299.979 296.000,298.436 296.707,297.571 297.571 M117.894 319.093 C 112.808 321.001,111.442 328.533,115.455 332.545 C 120.744 337.835,129.400 334.052,129.400 326.450 C 129.400 320.576,123.685 316.922,117.894 319.093 M373.656 319.133 C 371.279 320.514,368.834 326.363,369.659 328.694 C 370.953 332.350,374.287 335.000,377.593 335.000 C 382.210 335.000,383.872 334.148,385.537 330.928 C 387.707 326.732,387.335 324.181,384.077 320.923 C 380.996 317.842,377.044 317.163,373.656 319.133 M354.091 325.012 C 352.245 327.717,349.905 330.681,348.891 331.599 C 346.351 333.897,347.393 335.000,352.104 335.000 C 355.004 335.000,356.760 334.331,358.545 332.545 C 361.522 329.569,361.864 324.092,359.223 321.702 C 357.562 320.199,357.229 320.413,354.091 325.012 M140.923 346.923 C 139.161 348.685,138.000 350.900,138.000 352.500 C 138.000 356.218,142.988 361.000,146.867 361.000 C 151.491 361.000,155.400 357.106,155.400 352.500 C 155.400 344.716,146.543 341.304,140.923 346.923 M166.455 346.455 C 161.062 351.847,164.866 361.000,172.500 361.000 C 176.418 361.000,181.000 357.440,181.000 354.396 C 181.000 351.844,172.338 344.000,169.520 344.000 C 169.184 344.000,167.805 345.105,166.455 346.455 M270.695 347.385 C 266.271 351.437,265.879 354.970,269.455 358.545 C 274.847 363.938,284.000 360.134,284.000 352.500 C 284.000 348.257,280.364 344.000,276.741 344.000 C 275.448 344.000,272.728 345.523,270.695 347.385 M346.455 346.455 C 341.062 351.847,344.866 361.000,352.500 361.000 C 357.377 361.000,361.000 357.377,361.000 352.500 C 361.000 344.866,351.847 341.062,346.455 346.455 M116.171 346.750 C 110.954 351.202,114.377 360.000,121.326 360.000 C 127.914 360.000,131.587 351.587,127.000 347.000 C 124.499 344.499,118.958 344.371,116.171 346.750 M166.455 372.455 C 162.969 375.940,163.191 380.345,167.046 384.200 C 169.680 386.834,170.594 387.166,173.796 386.654 C 178.445 385.909,181.000 382.863,181.000 378.064 C 181.000 370.570,171.862 367.047,166.455 372.455 M192.174 372.314 C 189.496 375.166,189.286 380.905,191.750 383.920 C 192.713 385.097,195.167 386.328,197.204 386.654 C 200.406 387.166,201.320 386.834,203.954 384.200 C 207.809 380.345,208.031 375.940,204.545 372.455 C 201.223 369.132,195.228 369.064,192.174 372.314 M218.565 371.578 C 214.206 375.937,214.267 381.492,218.712 384.988 C 225.996 390.717,235.871 382.454,231.603 374.200 C 229.404 369.946,221.738 368.404,218.565 371.578 M243.455 372.455 C 240.014 375.895,240.193 380.347,243.923 384.077 C 247.181 387.335,249.732 387.707,253.928 385.537 C 257.148 383.872,258.000 382.210,258.000 377.593 C 258.000 370.558,248.653 367.256,243.455 372.455 M321.455 372.455 C 316.278 377.631,319.815 386.000,327.180 386.000 C 330.570 386.000,335.000 382.087,335.000 379.093 C 335.000 371.422,326.602 367.307,321.455 372.455 M141.591 372.899 C 138.844 375.934,139.219 380.932,142.399 383.667 C 143.891 384.950,145.961 386.000,147.000 386.000 C 150.399 386.000,154.324 381.687,154.221 378.066 C 154.092 373.524,151.512 371.000,147.000 371.000 C 144.645 371.000,142.688 371.687,141.591 372.899 M195.315 396.985 C 192.675 398.075,191.000 400.966,191.000 404.434 C 191.000 410.731,199.931 413.446,203.927 408.365 C 205.067 406.916,206.000 404.716,206.000 403.476 C 206.000 398.637,200.059 395.028,195.315 396.985 M218.174 398.314 C 213.633 403.149,216.416 410.567,223.177 411.649 C 226.240 412.140,227.282 411.808,229.427 409.664 C 234.781 404.310,231.396 396.000,223.860 396.000 C 221.483 396.000,219.646 396.747,218.174 398.314 " stroke="none" fill="#ffbd5a" fill-rule="evenodd"/>
  </symbol>
  
  <!-- Close (X) icon, 24x24, strokes inherit currentColor -->
  <symbol id="icon-close" viewBox="0 0 24 24">
    <line x1="18" y1="6" x2="6" y2="18" stroke="currentColor" stroke-width="2" stroke-linecap="round" stroke-linejoin="round" />
    <line x1="6" y1="6" x2="18" y2="18" stroke="currentColor" stroke-width="2" stroke-linecap="round" stroke-linejoin="round" />
  </symbol>
  <!-- Heart / favorite icon -->
  <symbol id="icon-heart" viewBox="0 0 24 24">
    <path d="M12 21s-6.2-3.95-9.16-7.21C-0.12 10.18 1.39 5.8 5.05 4.37 7.17 3.55 9.63 4.17 11.1 6c1.47-1.83 3.93-2.45 6.05-1.63 3.66 1.43 5.17 5.81 2.21 9.42C18.2 17.05 12 21 12 21z" fill="currentColor" />
  </symbol>
  <!-- Compare icon (two overlapping cards) -->
  <symbol id="icon-compare" viewBox="0 0 24 24">
    <rect x="4" y="7" width="10" height="12" rx="2" ry="2" fill="none" stroke="currentColor" stroke-width="2" />
    <rect x="10" y="5" width="10" height="12" rx="2" ry="2" fill="none" stroke="currentColor" stroke-width="2" />
    <line x1="9" y1="11" x2="13" y2="11" stroke="currentColor" stroke-width="2" stroke-linecap="round" />
    <line x1="11" y1="13" x2="15" y2="13" stroke="currentColor" stroke-width="2" stroke-linecap="round" />
  </symbol>
  <!-- Добавьте другие иконки по аналогии -->
</svg>