<?xml version="1.0" encoding="UTF-8"?>
<svg xmlns="http://www.w3.org/2000/svg" xmlns:xlink="http://www.w3.org/1999/xlink" width="24px" height="24px" viewBox="0 0 24 24" version="1.1">
<g id="surface1">
<path style=" stroke:none;fill-rule:nonzero;fill:rgb(0%,0%,0%);fill-opacity:1;" d="M 4.925781 0.425781 C 4.75 0.484375 4.808594 0.441406 3.046875 1.5625 C 1.421875 2.597656 1.085938 2.890625 0.734375 3.613281 C 0.320312 4.457031 0.28125 5.128906 0.582031 6.289062 C 1.457031 9.703125 3.179688 12.976562 5.535156 15.726562 C 6.117188 16.40625 7.527344 17.828125 8.195312 18.394531 C 11 20.808594 14.273438 22.53125 17.714844 23.417969 C 18.871094 23.71875 19.542969 23.679688 20.386719 23.265625 C 21.113281 22.914062 21.398438 22.585938 22.480469 20.882812 C 22.972656 20.109375 23.421875 19.382812 23.480469 19.269531 C 23.773438 18.695312 23.558594 17.925781 23 17.585938 C 22.921875 17.535156 21.660156 17.042969 20.203125 16.496094 C 17.371094 15.429688 17.207031 15.382812 16.804688 15.523438 C 16.703125 15.5625 16.171875 15.875 15.632812 16.222656 C 15.089844 16.574219 14.574219 16.890625 14.484375 16.925781 C 14.226562 17.03125 13.753906 17.007812 13.5 16.875 C 12.648438 16.4375 11.046875 15.171875 9.933594 14.0625 C 8.851562 12.984375 7.542969 11.328125 7.128906 10.515625 C 7 10.246094 6.960938 9.875 7.046875 9.605469 C 7.082031 9.488281 7.402344 8.9375 7.761719 8.386719 C 8.117188 7.835938 8.4375 7.3125 8.46875 7.21875 C 8.621094 6.800781 8.601562 6.734375 7.519531 3.847656 C 6.964844 2.363281 6.464844 1.078125 6.417969 1 C 6.117188 0.515625 5.476562 0.273438 4.925781 0.425781 Z M 4.925781 0.425781 "/>
</g>
</svg>
