<?xml version="1.0" standalone="no"?>
<!DOCTYPE svg PUBLIC "-//W3C//DTD SVG 20010904//EN"
 "http://www.w3.org/TR/2001/REC-SVG-20010904/DTD/svg10.dtd">
<svg version="1.0" xmlns="http://www.w3.org/2000/svg"
 width="512.000000pt" height="512.000000pt" viewBox="0 0 512.000000 512.000000"
 preserveAspectRatio="xMidYMid meet">

<g transform="translate(0.000000,512.000000) scale(0.100000,-0.100000)"
fill="#000000" stroke="none">
<path d="M1051 5029 c-38 -12 -25 -3 -401 -242 -347 -221 -418 -284 -493 -438
-89 -180 -97 -323 -33 -571 187 -728 554 -1426 1057 -2013 124 -145 425 -448
567 -569 599 -515 1297 -883 2031 -1072 247 -64 390 -56 570 33 155 75 216
145 447 508 105 165 201 320 213 344 63 123 17 287 -102 359 -17 11 -286 116
-597 233 -604 227 -639 237 -725 207 -22 -8 -135 -75 -250 -149 -116 -75 -226
-142 -245 -150 -55 -22 -156 -17 -210 11 -182 93 -523 363 -761 600 -231 230
-510 583 -598 757 -28 57 -36 136 -18 194 8 25 76 142 153 260 76 117 144 229
151 249 32 89 28 103 -203 719 -118 317 -225 591 -235 608 -64 103 -201 155
-318 122z"/>
</g>
</svg>
