<?xml version="1.0" standalone="no"?>
<!DOCTYPE svg PUBLIC "-//W3C//DTD SVG 20010904//EN"
 "http://www.w3.org/TR/2001/REC-SVG-20010904/DTD/svg10.dtd">
<svg version="1.0" xmlns="http://www.w3.org/2000/svg"
 width="500.000000pt" height="500.000000pt" viewBox="0 0 500.000000 500.000000"
 preserveAspectRatio="xMidYMid meet">

<g transform="translate(0.000000,500.000000) scale(0.100000,-0.100000)"
fill="#000000" stroke="none">
<path d="M1307 3476 c-91 -25 -170 -100 -196 -187 -7 -23 -11 -147 -11 -328
l0 -292 -37 8 c-124 26 -240 -4 -319 -82 -68 -68 -89 -124 -89 -235 0 -110 17
-153 88 -224 65 -65 127 -91 217 -91 41 0 89 4 106 8 30 8 32 6 58 -47 29 -60
73 -103 139 -138 l42 -23 1030 0 1030 0 50 27 c62 33 108 80 134 138 19 43 21
65 21 406 0 408 -9 364 89 423 29 18 55 31 56 29 2 -2 5 -48 6 -102 l2 -99
-72 -54 c-56 -42 -71 -59 -69 -76 5 -34 42 -33 91 3 l42 31 3 -33 c7 -96 22
-119 62 -98 15 8 20 24 22 71 l3 60 42 -31 c51 -38 88 -38 88 0 0 18 -16 36
-67 75 l-67 50 0 103 c-1 56 1 102 4 102 4 0 44 -23 90 -50 l83 -51 7 -77 c7
-85 14 -105 39 -110 34 -7 44 15 39 79 l-6 60 53 -31 c59 -35 90 -33 90 6 0
18 -12 32 -51 55 -28 18 -47 35 -42 39 4 4 29 15 55 25 48 18 62 34 52 59 -10
27 -35 25 -117 -8 l-82 -34 -40 24 c-22 14 -61 37 -87 52 -27 15 -48 30 -48
33 0 4 39 30 87 58 l86 52 76 -31 c88 -35 107 -37 120 -12 14 27 -3 48 -59 68
-27 10 -50 20 -50 23 0 4 23 19 50 34 39 22 50 34 50 53 0 36 -26 40 -79 13
-25 -13 -50 -25 -55 -28 -5 -2 -7 20 -3 51 6 60 -5 88 -33 88 -27 0 -37 -24
-45 -116 l-7 -80 -51 -31 c-29 -17 -69 -41 -89 -53 l-38 -22 0 105 0 105 70
52 c52 38 70 58 70 75 0 41 -34 41 -90 0 l-50 -37 0 59 c0 61 -11 83 -42 83
-25 0 -38 -31 -38 -90 l0 -51 -46 36 c-51 38 -63 42 -82 23 -24 -24 -11 -45
58 -97 l70 -52 0 -105 0 -106 -37 23 c-21 13 -54 33 -75 45 l-36 23 -4 99 c-3
89 -6 103 -33 147 -17 27 -50 64 -73 82 -86 65 -43 63 -1126 62 -771 0 -991
-3 -1029 -13z m2077 -109 c68 -39 75 -56 78 -197 2 -69 7 -128 11 -131 5 -4 9
-219 9 -479 l-1 -472 -23 -46 c-25 -50 -69 -86 -127 -102 -23 -6 -383 -10
-1006 -10 l-970 0 -52 24 c-62 29 -100 81 -111 152 -5 27 -7 294 -5 594 4 528
5 546 25 589 14 29 36 53 66 72 l46 29 1010 0 1011 0 39 -23z m251 -391 l56
-34 -51 -31 c-27 -17 -55 -31 -60 -31 -6 0 -10 29 -10 65 0 36 2 65 4 65 3 0
30 -15 61 -34z m-2562 -396 l27 -13 0 -203 0 -202 -40 -16 c-85 -34 -191 -13
-254 50 -120 120 -74 330 85 391 40 15 142 11 182 -7z"/>
<path d="M942 2998 c-8 -8 -12 -45 -12 -100 0 -86 1 -89 26 -100 23 -11 29
-10 45 11 21 26 27 130 9 175 -10 28 -47 35 -68 14z"/>
<path d="M512 2818 c-7 -7 -12 -19 -12 -28 0 -18 121 -140 138 -140 16 0 42
30 42 49 0 23 -111 131 -136 131 -11 0 -25 -5 -32 -12z"/>
<path d="M342 2398 c-17 -17 -15 -65 4 -72 9 -3 50 -6 93 -6 81 0 101 9 101
45 0 37 -20 45 -105 45 -50 0 -86 -5 -93 -12z"/>
<path d="M564 2018 c-35 -33 -64 -69 -64 -79 0 -19 25 -49 42 -49 17 0 138
122 138 140 0 17 -29 50 -44 50 -4 0 -37 -28 -72 -62z"/>
<path d="M948 1929 c-15 -8 -18 -25 -18 -97 0 -94 8 -112 47 -112 31 0 43 33
43 113 0 88 -27 123 -72 96z"/>
</g>
</svg>
