<svg xmlns="http://www.w3.org/2000/svg" width="500" height="500"><path fill="#4ba5e5" fill-rule="evenodd" d="M280 88.378c0 .207.788.995 1.75 1.75 1.586 1.243 1.621 1.208.378-.378-1.307-1.666-2.128-2.195-2.128-1.372m-38 12c0 .207.788.995 1.75 1.75 1.586 1.243 1.621 1.208.378-.378-1.307-1.666-2.128-2.195-2.128-1.372m6.813 12.305c.721.289 1.584.253 1.916-.079s-.258-.568-1.312-.525c-1.165.048-1.402.285-.604.604m26 0c.721.289 1.584.253 1.916-.079s-.258-.568-1.312-.525c-1.165.048-1.402.285-.604.604m51 0c.721.289 1.584.253 1.916-.079s-.258-.568-1.312-.525c-1.165.048-1.402.285-.604.604m26 1c.721.289 1.584.253 1.916-.079s-.258-.568-1.312-.525c-1.165.048-1.402.285-.604.604m-211.941 2.067c-1.243 1.586-1.208 1.621.378.378.963-.755 1.75-1.543 1.75-1.75 0-.823-.821-.294-2.128 1.372M152 114.378c0 .207.788.995 1.75 1.75 1.586 1.243 1.621 1.208.378-.378-1.307-1.666-2.128-2.195-2.128-1.372m64.872 1.372c-1.243 1.586-1.208 1.621.378.378.963-.755 1.75-1.543 1.75-1.75 0-.823-.821-.294-2.128 1.372M229 114.378c0 .207.788.995 1.75 1.75 1.586 1.243 1.621 1.208.378-.378-1.307-1.666-2.128-2.195-2.128-1.372m64.872 1.372c-1.243 1.586-1.208 1.621.378.378 1.666-1.307 2.195-2.128 1.372-2.128-.207 0-.995.788-1.75 1.75M306 114.378c0 .207.788.995 1.75 1.75 1.586 1.243 1.621 1.208.378-.378-1.307-1.666-2.128-2.195-2.128-1.372m29.079 7.205c.048 1.165.285 1.402.604.605.289-.722.253-1.585-.079-1.917s-.568.258-.525 1.312M271 125.037c-10.04.796-19.696 5.721-32.75 16.702-2.887 2.428-5.26 3.818-5.273 3.088s-.749.148-1.638 1.95-2.903 4.361-4.477 5.686c-1.574 1.324-2.862 2.886-2.862 3.47s-1.58 3.261-3.511 5.949c-4.509 6.276-11.127 20.399-12.649 26.99-.651 2.82-1.491 5.128-1.866 5.128-1.184 0-1.144 27.547.049 34.125.627 3.458 2.275 9.88 3.662 14.271 2.049 6.486 2.709 7.651 3.518 6.205.548-.978.753-2.977.457-4.44-1.801-8.882 5.552-29.045 14.53-39.845 9.629-11.582 26.875-22.076 43.31-26.352 6.37-1.658 10.896-2.069 22.213-2.02 15.626.068 21.302.922 31.787 4.786 14.225 5.242 27.342 13.745 35.143 22.782 2.594 3.004 4.895 5.283 5.114 5.064.697-.696-6.323-15.785-11.109-23.88-5.191-8.779-11.245-16.905-18.547-24.895-4.434-4.851-4.772-5.537-3.273-6.643.92-.678 1.09-.952.378-.609-.711.343-2.035.022-2.942-.713-1.405-1.139-1.529-1.115-.839.164.445.825-.616.038-2.358-1.75-1.743-1.787-3.622-3.25-4.177-3.25s-.723-.461-.375-1.025c.349-.563.263-.908-.191-.765-.453.142-5.099-2.401-10.324-5.652-7.919-4.928-18.344-9.86-27.313-12.924-.998-.341-1.58-.998-1.294-1.46.285-.462-.136-.841-.937-.841s-1.456.43-1.456.956c0 .579-.493.6-1.25.055-.687-.496-4.625-.634-8.75-.307m-78.438 12.055c-10.025 5.162-16.445 9.282-24.149 15.497-6.302 5.084-23.806 21.23-21.747 20.06.641-.365-.867 2.368-3.352 6.074-10.422 15.542-16.565 32.206-16.578 44.974-.008 7.343.364 8.982 3.576 15.744 4.127 8.691 8.077 14.678 14.322 21.71 2.426 2.732 4.107 5.46 3.734 6.062-.388.629-.219.813.397.432.591-.365 1.898.353 2.905 1.595 1.006 1.243 3.056 2.892 4.554 3.665s4.336 2.882 6.307 4.687 3.895 3.356 4.276 3.445c.381.09.569.601.418 1.137s.121.73.605.431c.485-.299 4.883 1.206 9.775 3.344 17.219 7.528 22.813 8.684 41.395 8.553 17.829-.126 23.05-1.28 35.51-7.851l4.99-2.632-5.5.571c-3.025.314-6.025.731-6.666.927-1.985.606-14.143-1.428-19.624-3.283-10.833-3.664-24.624-14.982-32.881-26.983-6.081-8.839-13.395-25.972-15.262-35.751-1.843-9.66-2.472-23.214-1.511-32.581 1.69-16.462 8.393-34.328 16.244-43.29 4.387-5.009 7.7-9.327 7.7-10.037 0-1.136-1.555-.56-9.438 3.5m-77.69 3.658c-1.243 1.586-1.208 1.621.378.378.963-.755 1.75-1.543 1.75-1.75 0-.823-.821-.294-2.128 1.372M114 152.378c0 .207.788.995 1.75 1.75 1.586 1.243 1.621 1.208.378-.378-1.307-1.666-2.128-2.195-2.128-1.372m268.872 26.372c-1.243 1.586-1.208 1.621.378.378 1.666-1.307 2.195-2.128 1.372-2.128-.207 0-.995.788-1.75 1.75m-6.122 1.912c.688.278 1.813.278 2.5 0 .688-.277.125-.504-1.25-.504s-1.937.227-1.25.504m-255.937 1.021c.721.289 1.584.253 1.916-.079s-.258-.568-1.312-.525c-1.165.048-1.402.285-.604.604m77 0c.721.289 1.584.253 1.916-.079s-.258-.568-1.312-.525c-1.165.048-1.402.285-.604.604m-103 8c.721.289 1.584.253 1.916-.079s-.258-.568-1.312-.525c-1.165.048-1.402.285-.604.604m26 0c.721.289 1.584.253 1.916-.079s-.258-.568-1.312-.525c-1.165.048-1.402.285-.604.604M279 191.378c0 .207.788.995 1.75 1.75 1.586 1.243 1.621 1.208.378-.378-1.307-1.666-2.128-2.195-2.128-1.372m14.872 1.372c-1.243 1.586-1.208 1.621.378.378.963-.755 1.75-1.543 1.75-1.75 0-.823-.821-.294-2.128 1.372M306 191.378c0 .207.788.995 1.75 1.75 1.586 1.243 1.621 1.208.378-.378-1.307-1.666-2.128-2.195-2.128-1.372m13.079 7.205c.048 1.165.285 1.402.604.605.289-.722.253-1.585-.079-1.917s-.568.258-.525 1.312M88 203.378c0 .207.788.995 1.75 1.75 1.586 1.243 1.621 1.208.378-.378-1.307-1.666-2.128-2.195-2.128-1.372m181.418.489c.295.477-1.39 1.131-3.743 1.454s-8.039 1.774-12.635 3.226c-9.881 3.121-9.314 4.408 1.96 4.451 8.337.032 20.293 3.588 27.534 8.19 15.592 9.91 30.526 30.675 36.361 50.558 6.002 20.452 5.811 43.764-.522 63.754-2.098 6.623-8.934 20.087-12.512 24.644-1.573 2.004-2.861 3.958-2.861 4.342 0 .918 11.264-5.3 19.86-10.963 7.838-5.163 28.279-23.667 29.353-26.571.398-1.074 1.262-1.952 1.921-1.952.66 0 .902-.297.539-.66-1.005-1.006 3.166-3.558 4.483-2.743.737.455.88.271.397-.511-.415-.672-1.442-.959-2.28-.637-1.293.496-1.27.195.153-1.976 9.797-14.953 16.605-33.137 16.55-44.205-.044-8.805-7.287-22.912-17.528-34.135-3.329-3.648-7.072-8.095-8.318-9.883-1.247-1.787-2.941-3.25-3.765-3.25s-3.156-1.237-5.181-2.75c-4.383-3.274-8.305-6.892-6.184-5.705 1.293.723 1.31.605.128-.853-1.486-1.832-2.634-2.32-1.628-.692 1.064 1.721-.712 1.09-2.108-.75-.952-1.254-1.337-1.361-1.36-.378-.023.963-.405 1.075-1.282.374-.687-.549-5.3-2.572-10.25-4.496l-11-4.274c-3.02-1.175-3.924-1.296-18.7-2.521-7.535-.624-14.172-.843-14.75-.486s-1.05.172-1.05-.41-.477-1.059-1.059-1.059-.818.39-.523.867M114.872 217.75c-1.243 1.586-1.208 1.621.378.378 1.666-1.307 2.195-2.128 1.372-2.128-.207 0-.995.788-1.75 1.75M114 229.378c0 .207.788.995 1.75 1.75 1.586 1.243 1.621 1.208.378-.378-1.307-1.666-2.128-2.195-2.128-1.372m262.75 1.284c.688.278 1.813.278 2.5 0 .688-.277.125-.504-1.25-.504s-1.937.227-1.25.504m-91.71 26.12c-.059 16.714-3.73 26.353-14.812 38.898-24.761 28.028-67.707 35.002-105.949 17.204-6.674-3.107-14.981-8.742-23.18-15.727-2.805-2.389-5.099-3.867-5.099-3.285 0 1.798 7.046 14.177 13.426 23.587 3.341 4.927 9.776 12.85 14.301 17.606s7.948 8.927 7.607 9.268.232.925 1.273 1.298 2.938 1.847 4.215 3.274c1.278 1.427 2.032 1.92 1.676 1.095-.355-.825.094-.6.998.5.905 1.1 2.037 1.896 2.517 1.769.479-.127 3.249 1.336 6.156 3.25 2.907 1.915 5.66 3.481 6.117 3.481.458 0 .511.52.119 1.155-.419.676-.277.884.341.502.581-.359 4.138.651 7.905 2.245 7.663 3.241 20.102 7.098 22.892 7.098 1.006 0 2.979 1.013 4.385 2.25l2.558 2.25-1.898-2.25-1.898-2.25 4.405-.01c7.048-.015 22.51-8.507 29.829-16.382 1.334-1.434 2.74-2.608 3.125-2.608s2.419-1.575 4.521-3.5 3.482-3.5 3.067-3.5 1.223-2.587 3.638-5.75c9.874-12.926 17.732-36.034 17.721-52.11-.008-11.603-4.031-29.777-8.36-37.768-1.487-2.745-1.558-2.373-1.596 8.41M369.158 250c0 1.375.227 1.938.504 1.25.278-.687.278-1.812 0-2.5-.277-.687-.504-.125-.504 1.25m-248.345 8.683c.721.289 1.584.253 1.916-.079s-.258-.568-1.312-.525c-1.165.048-1.402.285-.604.604m5.187 9.695c0 .207.788.995 1.75 1.75 1.586 1.243 1.621 1.208.378-.378-1.307-1.666-2.128-2.195-2.128-1.372m-13.921 7.205c.048 1.165.285 1.402.604.605.289-.722.253-1.585-.079-1.917s-.568.258-.525 1.312m283 0c.048 1.165.285 1.402.604.605.289-.722.253-1.585-.079-1.917s-.568.258-.525 1.312m-268.207 6.167c-1.243 1.586-1.208 1.621.378.378.963-.755 1.75-1.543 1.75-1.75 0-.823-.821-.294-2.128 1.372m172.878-1.088c.688.278 1.813.278 2.5 0 .688-.277.125-.504-1.25-.504s-1.937.227-1.25.504M165.872 295.75c-1.243 1.586-1.208 1.621.378.378.963-.755 1.75-1.543 1.75-1.75 0-.823-.821-.294-2.128 1.372M408 294.378c0 .207.788.995 1.75 1.75 1.586 1.243 1.621 1.208.378-.378-1.307-1.666-2.128-2.195-2.128-1.372M369.158 301c0 1.375.227 1.938.504 1.25.278-.687.278-1.812 0-2.5-.277-.687-.504-.125-.504 1.25m39.714 5.75c-1.243 1.586-1.208 1.621.378.378.963-.755 1.75-1.543 1.75-1.75 0-.823-.821-.294-2.128 1.372m-237.059 2.933c.721.289 1.584.253 1.916-.079s-.258-.568-1.312-.525c-1.165.048-1.402.285-.604.604M369.158 327c0 1.375.227 1.938.504 1.25.278-.687.278-1.812 0-2.5-.277-.687-.504-.125-.504 1.25m-17.345 8.683c.721.289 1.584.253 1.916-.079s-.258-.568-1.312-.525c-1.165.048-1.402.285-.604.604m-238.734 16.9c.048 1.165.285 1.402.604.605.289-.722.253-1.585-.079-1.917s-.568.258-.525 1.312m58.734 17.1c.721.289 1.584.253 1.916-.079s-.258-.568-1.312-.525c-1.165.048-1.402.285-.604.604m26 0c.721.289 1.584.253 1.916-.079s-.258-.568-1.312-.525c-1.165.048-1.402.285-.604.604m51 0c.721.289 1.584.253 1.916-.079s-.258-.568-1.312-.525c-1.165.048-1.402.285-.604.604m-31.941 3.067c-1.243 1.586-1.208 1.621.378.378 1.666-1.307 2.195-2.128 1.372-2.128-.207 0-.995.788-1.75 1.75M331 371.378c0 .207.788.995 1.75 1.75 1.586 1.243 1.621 1.208.378-.378-1.307-1.666-2.128-2.195-2.128-1.372M139.158 378c0 1.375.227 1.938.504 1.25.278-.687.278-1.812 0-2.5-.277-.687-.504-.125-.504 1.25m14.921.583c.048 1.165.285 1.402.604.605.289-.722.253-1.585-.079-1.917s-.568.258-.525 1.312"/><path fill="#007afe" fill-rule="evenodd" d="M244.046 89.8c-3.92 3.92-3.958 7.442-.123 11.277 3.73 3.73 8.182 3.909 11.622.468 5.002-5.001 2.304-13.07-4.749-14.199-3.202-.512-4.116-.18-6.75 2.454m27.454-1.592c-3.126 1.793-4.434 4.013-4.468 7.587-.072 7.461 9.394 11.086 14.516 5.559 3.372-3.639 3.202-7.758-.471-11.431-3.069-3.069-6.229-3.635-9.577-1.715m25.709-.199c-5.243 2.19-5.784 11.074-.883 14.507 5.354 3.75 13.074-.33 13.074-6.909 0-6.081-6.35-10.039-12.191-7.598m-156.235 27.518c-6.358 6.769.65 16.848 9.401 13.521 3.062-1.165 5.978-6.884 4.966-9.742-2.294-6.483-9.937-8.493-14.367-3.779m77.315-.277c-3.076 3.361-3.605 6.238-1.793 9.743 4.088 7.904 15.904 5.292 15.904-3.515 0-7.401-9.286-11.499-14.111-6.228m25.791-.5c-1.177.963-2.408 3.417-2.734 5.454-.516 3.224-.183 4.113 2.577 6.873s3.649 3.093 6.873 2.577c6.799-1.089 9.499-8.466 5.131-14.019-2.508-3.189-8.482-3.635-11.847-.885m25.375.705c-1.707 1.706-2.455 3.563-2.455 6.092v3.637l5.75-.32c3.163-.177 6.313.034 7 .467.709.446 1.25.329 1.25-.272 0-.582.563-.946 1.25-.809.747.149 1.376-1.051 1.562-2.983.696-7.212-9.023-11.147-14.357-5.812m25.656-.073c-3.997 4.254-2.565 11.734 2.624 13.707 5.398 2.053 10.687-.95 11.842-6.723.468-2.341.011-3.703-2.077-6.184-3.448-4.097-8.958-4.453-12.389-.8m25.969-.632c-1.177.963-2.408 3.417-2.734 5.454-.516 3.224-.183 4.113 2.577 6.873s3.649 3.093 6.873 2.577c10.368-1.66 9.467-16.654-1-16.654-1.966 0-4.538.788-5.716 1.75M347 116c-2.978 2.978-2.667 8.33.635 10.927 1.449 1.14 3.638 2.073 4.865 2.073 3.838 0 7.5-3.697 7.5-7.573 0-4.522-2.934-7.427-7.5-7.427-2.167 0-4.262.762-5.5 2m-228 22.731c-6.163 2.151-8.067 9.979-3.475 14.292C120.855 158.031 130 154.226 130 147c0-5.067-6.397-9.875-11-8.269m24.384.703c-6.555 2.854-6.219 13.034.508 15.379 10.286 3.585 16.535-11.23 6.505-15.421-3.914-1.635-3.149-1.639-7.013.042m77-.002c-6.321 2.757-6.357 12.415-.055 15.064 2.958 1.244 3.205 1.138 7.366-3.143 2.368-2.436 4.305-5.312 4.305-6.391 0-2.006-3.264-5.962-4.918-5.962-.505 0-1.518-.209-2.25-.464-.733-.254-2.734.148-4.448.896m103.97-.736c-1.18.229-2.951 1.306-3.936 2.395-1.73 1.911-1.712 2.056.533 4.194 1.278 1.218 2.005 1.54 1.614.715s.891.3 2.848 2.5 3.564 3.607 3.572 3.128.69-.313 1.515.372c4.106 3.408 6.385-6.6 2.461-10.811-1.121-1.204-2.435-2.189-2.918-2.189s-1.479-.162-2.211-.36c-.733-.197-2.298-.172-3.478.056m25.003.274c-8.456 3.497-5.982 16.43 3.143 16.43 7.235 0 11.052-8.432 6.25-13.807-2.572-2.878-6.275-3.913-9.393-2.623M194.7 143.426c-4.409 4.87-4.596 6.724-.966 9.58 6.909 5.434 15.87-3.416 10.795-10.661-2.647-3.779-5.736-3.44-9.829 1.081m179.871.145c-3.13 3.131-1.079 8.429 3.264 8.429 3.462 0 5.165-1.649 5.165-5 0-1.43-.54-3.14-1.2-3.8-1.683-1.683-5.364-1.494-7.229.371M92.465 164.93c-4.225 1.758-6.257 6.743-4.488 11.014 3.273 7.902 16.023 5.64 16.023-2.843 0-5.597-6.556-10.242-11.535-8.171m24.85.077c-4.573 1.843-5.757 8.891-2.242 13.358 1.592 2.024 2.957 2.635 5.889 2.635 4.907 0 7.941-2.515 8.692-7.204.512-3.202.18-4.116-2.454-6.75-3.093-3.093-5.855-3.663-9.885-2.039m77.185.201c-4.879 2.798-5.962 8.664-2.427 13.157 1.617 2.057 2.944 2.635 6.045 2.635 8.251 0 11.756-8.28 5.959-14.077-3.069-3.069-6.229-3.635-9.577-1.715m178.614 1.542c-5.59 4.641-2.415 13.25 4.886 13.25 7.069 0 10.447-7.644 5.545-12.545-2.915-2.916-7.403-3.219-10.431-.705m-228.929.934c-2.078.831-3.339 5.16-2.15 7.381 1.249 2.334 2.965 2.541 2.965.358 0-.867 1.29-2.867 2.867-4.444 2.213-2.213 2.537-2.994 1.418-3.423-1.688-.648-3.259-.608-5.1.128m-54.73 24.771c-3.441 3.44-3.262 7.892.468 11.622 3.12 3.12 5.871 3.635 9.393 1.76C107.299 201.585 104.508 190 95.5 190c-2.479 0-4.351.76-6.045 2.455m25.618.18c-4.368 5.553-1.668 12.93 5.131 14.019 5.435.87 10.32-4.015 9.45-9.45-.751-4.689-3.785-7.204-8.692-7.204-2.932 0-4.297.611-5.889 2.635m79.291-1.465c-4.101 1.985-5.477 7.796-2.763 11.671 2.43 3.469 5.874 4.405 9.947 2.703 2.837-1.185 3.452-1.971 3.452-4.411 0-1.633.265-3.661.59-4.507.803-2.094-3.91-6.643-6.795-6.558-1.262.037-3.256.533-4.431 1.102m100.747 1.212c-4.568 4.862-1.947 13.512 4.162 13.736 4.866.179 6.068-.115 7.953-1.947 5.226-5.081 1.287-14.171-6.141-14.171-2.643 0-4.391.697-5.974 2.382M270 193c-2.509 2.509-2.646 8.012-.25 10.028 2.33 1.96 10.315 1.45 12-.766 5.104-6.714-5.746-15.266-11.75-9.262m52 0c-2.65 2.65-2.643 8.108.013 10.512 2.851 2.58 7.867 2.355 10.143-.456 2.535-3.131 2.309-6.681-.611-9.601-2.973-2.973-6.842-3.158-9.545-.455M92.357 215.97c-5.402 2.234-6.905 9.118-2.987 13.674 5.006 5.82 14.63 2.107 14.63-5.644 0-5.867-6.325-10.229-11.643-8.03m26.643-.239c-9.213 3.215-7.193 16.841 2.457 16.567 1.874-.053 3.833-.359 4.353-.681.952-.588 1.123-14.069.19-14.894-.977-.863-5.523-1.507-7-.992m207.5.269c.34.55.816 1 1.059 1s.441-.45.441-1-.477-1-1.059-1-.781.45-.441 1m22.857-.03c-2.898 1.199-5.368 4.924-5.305 8.003.069 3.397 7.314 9.335 10.335 8.47 3.246-.929 6.613-5.227 6.613-8.443 0-5.557-6.606-10.113-11.643-8.03M331.5 218c.995 1.1 2.035 2 2.31 2s-.315-.9-1.31-2-2.035-2-2.31-2 .315.9 1.31 2m42.155 1.829c-3.77 4.165-.787 10.171 5.051 10.171 3.723 0 5.627-2.097 5.627-6.195 0-5.33-7.07-7.963-10.678-3.976m-256.34 22.178c-4.573 1.843-5.757 8.891-2.242 13.358 1.592 2.024 2.957 2.635 5.889 2.635 4.907 0 7.941-2.515 8.692-7.204.512-3.202.18-4.116-2.454-6.75-3.093-3.093-5.855-3.663-9.885-2.039m257-.038c-4.767 2.004-5.944 10.152-2.001 13.857 2.276 2.138 6.808 2.832 10.141 1.553 2.517-.966 4.757-6.136 4.052-9.348-1.131-5.147-7.194-8.162-12.192-6.062m-283.092 2.588c-5.975 4.184.634 14.693 7.099 11.29 2.938-1.546 3.645-2.789 3.663-6.442.027-5.618-5.87-8.275-10.762-4.848m24.232 24.898c-5.188 5.188-1.601 14.545 5.576 14.545 3.982 0 8.969-4.726 8.969-8.5 0-1.6-1.161-3.815-2.923-5.577-3.73-3.73-8.182-3.909-11.622-.468m25.913-.095c-8.142 7.003 2.435 19.302 10.885 12.656 4.042-3.18 4.31-6.518.872-10.859-3.687-4.654-7.719-5.271-11.757-1.797m233.132-1.595c-.55.404-1 3.885-1 7.735s.45 7.331 1 7.735c2.018 1.482 6.461.702 9.144-1.605 5.624-4.838 1.963-14.657-5.45-14.615-1.482.009-3.144.346-3.694.75m26.5-.056c-3.214 1.182-5 3.687-5 7.012 0 4.628 1.381 6.868 5.016 8.135 6.834 2.382 13.025-4.375 10.363-11.311-1.17-3.047-6.832-5.14-10.379-3.836m-102.777 3.848C294.089 274.452 295.914 280 301 280c3.194 0 5-1.678 5-4.643 0-1.907-3.22-5.357-5-5.357-.305 0-1.555.701-2.777 1.557m-130.362 10.384c1.298 1.132 2.836 2.059 3.416 2.059 1.23 0 1.171-.05-2.777-2.362l-3-1.757zm207.23 11.149c-3.434 1.373-5.027 3.88-5.027 7.91 0 6.485 5.369 10.1 11.312 7.616 6.976-2.915 6.966-12.322-.016-15.239-1.813-.757-3.423-1.348-3.578-1.314s-1.366.497-2.691 1.027m-207.702 2.252c-3.497 3.008-3.657 7.679-.381 11.166 3.147 3.35 8.208 3.367 11.537.037 7.4-7.399-3.202-18.045-11.156-11.203m24.858-.105c-5.13 5.461-1.192 14.163 6.41 14.163 6.399 0 10.654-7.857 6.978-12.884-.751-1.027-2.213-2.002-3.25-2.166s-3.236-.57-4.888-.901c-2.354-.473-3.489-.086-5.25 1.788m208.068-1.23c-6.859 2.764-5.157 13.148 2.395 14.607 2.686.519 3.706.124 6.25-2.42 3.812-3.812 3.843-6.544.117-10.271-3.011-3.01-4.978-3.441-8.762-1.916m-131.443 1.743c-1.243 1.586-1.208 1.621.378.378 1.666-1.307 2.195-2.128 1.372-2.128-.207 0-.995.788-1.75 1.75m28.783 2.079c-.91 1.006-1.655 2.548-1.655 3.428 0 2.163 2.72 4.743 5 4.743 1.021 0 2.564-.707 3.429-1.571 3-3.001.846-8.429-3.345-8.429-.976 0-2.519.823-3.429 1.829m-179.298 21.172c-5.412 2.16-6.907 9.034-2.905 13.353 3.079 3.322 7.49 3.481 10.988.396 2.488-2.194 3.042-3.924 2.718-8.477-.261-3.672-6.806-6.867-10.801-5.272m255.958-.032c-4.767 2.004-5.944 10.152-2.001 13.857 2.276 2.138 6.808 2.832 10.141 1.553 2.517-.966 4.757-6.136 4.052-9.348-1.131-5.147-7.194-8.162-12.192-6.062m-18.815 3.606c-1.1.831-1.831 1.764-1.625 2.072s-1.243 2.497-3.22 4.862c-2.907 3.476-3.298 4.414-2.043 4.896 7.752 2.974 15.107-4.456 11.353-11.471-1.233-2.303-1.829-2.351-4.465-.359m-73.041 7.492c-.363.586-.445 1.281-.183 1.543s.743-.218 1.069-1.067c.676-1.762.1-2.072-.886-.476M141.356 346.37C135.65 351.278 139.401 361 147 361c1.597 0 4.12-1.06 5.644-2.37C158.35 353.722 154.599 344 147 344c-1.597 0-4.12 1.06-5.644 2.37m26.557-1.088c-2.152 1.652-3.913 5.13-3.913 7.729 0 3.296 5.268 7.989 8.969 7.989 3.421 0 8.031-3.761 8.031-6.553 0-1.816-5.168-7.159-8.864-9.164-2.775-1.505-2.264-1.505-4.223-.001m102.782 2.103c-4.424 4.052-4.816 7.585-1.24 11.16C274.752 363.843 284 360 284 352.5c0-3.918-3.912-8.5-7.257-8.5-1.294 0-4.015 1.523-6.048 3.385m75.76-.93c-5.394 5.393-1.589 14.545 6.047 14.545 4.614 0 8.498-3.885 8.498-8.5 0-7.5-9.248-11.343-14.545-6.045M116 347c-1.238 1.238-2 3.333-2 5.5 0 4.566 2.905 7.5 7.427 7.5 3.876 0 7.573-3.662 7.573-7.5 0-1.227-.933-3.416-2.073-4.865-2.597-3.302-7.949-3.613-10.927-.635m77.441 12.445c1.068.855 2.38 1.555 2.917 1.555 1.27 0 .703-.462-2.358-1.92-2.357-1.122-2.389-1.102-.559.365M167.08 371.75c-1.177.963-2.408 3.417-2.734 5.454-.512 3.202-.18 4.116 2.454 6.75 3.236 3.236 5.963 3.775 9.516 1.883 3.261-1.737 4.617-3.962 4.652-7.632.066-6.778-8.578-10.795-13.888-6.455m25.375.705c-5.398 5.398-1.275 14.545 6.556 14.545 3.296 0 7.989-5.268 7.989-8.969 0-7.177-9.357-10.764-14.545-5.576m25.834-.205c-3.076 3.361-3.605 6.238-1.793 9.743 4.088 7.904 15.904 5.292 15.904-3.515 0-7.401-9.286-11.499-14.111-6.228m25.791-.5c-1.177.963-2.408 3.417-2.734 5.454-.512 3.202-.18 4.116 2.454 6.75 3.376 3.376 5.898 3.77 10.128 1.583 3.172-1.64 4.072-3.335 4.072-7.664 0-6.464-8.778-10.325-13.92-6.123m79.235-.743c-4.915 1.981-5.906 9.596-1.68 12.92 5.148 4.05 11.757 1.688 12.979-4.637.519-2.686.124-3.706-2.42-6.25-3.122-3.122-5.069-3.568-8.879-2.033m-181.66 1.822c-2.33 2.575-2.134 8.427.358 10.683 4.513 4.084 11.987 1.001 11.987-4.944 0-4.886-2.446-7.568-6.902-7.568-2.4 0-4.395.67-5.443 1.829m53.66 24.203c-4.667 1.827-5.717 8.302-1.924 11.865 3.235 3.04 8.203 2.556 10.89-1.06 4.337-5.834-2.039-13.518-8.966-10.805m22.859 1.282c-3.727 3.968-2.766 9.811 2.02 12.286 5.823 3.012 11.806-.611 11.806-7.148 0-6.706-9.156-10.108-13.826-5.138"/></svg>