<?xml version="1.0" standalone="no"?>
<!DOCTYPE svg PUBLIC "-//W3C//DTD SVG 20010904//EN"
 "http://www.w3.org/TR/2001/REC-SVG-20010904/DTD/svg10.dtd">
<svg version="1.0" xmlns="http://www.w3.org/2000/svg"
 width="512.000000pt" height="512.000000pt" viewBox="0 0 512.000000 512.000000"
 preserveAspectRatio="xMidYMid meet">

<g transform="translate(0.000000,512.000000) scale(0.100000,-0.100000)"
fill="#000000" stroke="none">
<path d="M1659 4723 c-243 -124 -430 -263 -611 -452 -610 -637 -805 -1552
-506 -2376 168 -461 492 -870 903 -1138 324 -211 671 -331 1062 -367 129 -12
401 1 553 25 472 77 916 302 1249 634 181 180 332 389 442 607 46 94 54 117
54 166 0 60 -17 94 -66 131 -49 36 -93 33 -224 -16 -663 -249 -1365 -148
-1925 279 -111 84 -290 265 -372 375 -296 397 -437 897 -387 1380 19 188 60
350 150 594 29 78 21 122 -30 178 -35 37 -43 41 -98 45 -57 4 -64 2 -194 -65z
m-109 -450 c0 -5 -10 -57 -21 -118 -26 -144 -36 -450 -20 -606 61 -589 342
-1126 792 -1513 442 -380 992 -574 1569 -553 146 5 375 34 425 54 54 20 -179
-246 -312 -357 -298 -249 -626 -397 -1009 -455 -128 -19 -388 -22 -520 -5
-801 103 -1462 682 -1664 1455 -47 180 -63 311 -63 505 -1 445 134 845 404
1202 73 97 246 273 339 346 64 50 80 60 80 45z"/>
</g>
</svg>
