<?xml version="1.0" standalone="no"?>
<!DOCTYPE svg PUBLIC "-//W3C//DTD SVG 20010904//EN"
 "http://www.w3.org/TR/2001/REC-SVG-20010904/DTD/svg10.dtd">
<svg version="1.0" xmlns="http://www.w3.org/2000/svg"
 width="512.000000pt" height="512.000000pt" viewBox="0 0 512.000000 512.000000"
 preserveAspectRatio="xMidYMid meet">

<g transform="translate(0.000000,512.000000) scale(0.100000,-0.100000)"
fill="#000000" stroke="none">
<path d="M1030 5105 c-54 -17 -108 -49 -444 -265 -142 -91 -283 -187 -314
-214 -118 -103 -201 -232 -244 -383 -18 -63 -22 -103 -22 -208 0 -120 4 -143
41 -285 192 -728 538 -1394 1037 -1995 130 -156 517 -543 676 -675 563 -468
1183 -799 1859 -995 102 -29 227 -61 276 -70 275 -52 575 57 746 272 61 77
415 633 447 702 72 157 14 347 -138 447 -35 23 -1092 425 -1185 450 -69 19
-146 17 -208 -5 -29 -10 -148 -79 -263 -154 -232 -150 -275 -169 -346 -148
-76 23 -354 220 -553 392 -119 103 -345 330 -446 449 -167 195 -351 460 -371
534 -18 68 0 109 149 340 75 116 144 234 154 263 22 62 24 139 5 208 -8 28
-108 301 -224 607 -226 602 -237 624 -330 685 -91 59 -206 77 -302 48z m210
-179 c21 -13 47 -40 58 -58 11 -18 115 -286 231 -596 218 -582 226 -608 197
-675 -7 -18 -73 -123 -145 -235 -73 -112 -139 -222 -148 -245 -10 -25 -16 -75
-17 -122 -1 -97 18 -142 122 -296 307 -457 713 -861 1171 -1168 140 -94 191
-115 281 -116 50 0 92 6 125 19 28 10 142 79 255 152 223 144 242 154 301 154
41 0 1134 -403 1197 -442 68 -42 106 -140 84 -219 -5 -20 -101 -179 -213 -355
-237 -371 -284 -426 -420 -493 -163 -80 -302 -89 -519 -31 -687 182 -1317 501
-1865 944 -247 200 -546 495 -750 741 -458 551 -794 1201 -980 1895 -63 237
-57 371 26 539 67 136 122 183 489 417 173 110 329 206 345 212 46 18 131 7
175 -22z"/>
</g>
</svg>
