<?xml version="1.0" standalone="no"?>
<!DOCTYPE svg PUBLIC "-//W3C//DTD SVG 20010904//EN"
 "http://www.w3.org/TR/2001/REC-SVG-20010904/DTD/svg10.dtd">
<svg version="1.0" xmlns="http://www.w3.org/2000/svg"
 width="512.000000pt" height="512.000000pt" viewBox="0 0 512.000000 512.000000"
 preserveAspectRatio="xMidYMid meet">

<g transform="translate(0.000000,512.000000) scale(0.100000,-0.100000)"
fill="#000000" stroke="none">
<path d="M2397 5105 c-319 -61 -585 -293 -685 -598 -40 -121 -52 -230 -52
-469 l0 -198 -237 0 c-278 0 -337 -10 -463 -71 -161 -80 -290 -239 -335 -414
-21 -81 -208 -2697 -200 -2780 24 -223 168 -423 370 -515 138 -63 50 -60 1765
-60 1715 0 1627 -3 1765 60 202 92 346 292 370 515 8 83 -179 2699 -200 2780
-29 113 -81 203 -169 291 -89 88 -142 122 -256 162 -72 25 -84 26 -341 30
l-266 4 -6 251 c-4 168 -10 274 -20 317 -76 332 -329 596 -652 680 -106 28
-283 35 -388 15z m333 -266 c168 -46 322 -173 399 -329 61 -124 71 -187 71
-447 l0 -223 -640 0 -640 0 0 223 c0 260 10 322 71 447 77 156 241 290 409
334 84 22 241 20 330 -5z m1312 -1297 c116 -57 195 -165 212 -292 16 -114 187
-2583 183 -2642 -8 -130 -94 -256 -215 -315 l-57 -28 -1605 0 -1605 0 -58 28
c-68 34 -144 107 -175 171 -52 103 -53 57 37 1324 109 1536 105 1486 131 1554
36 95 120 176 228 219 45 17 109 18 1452 16 l1405 -2 67 -33z"/>
</g>
</svg>
