<?xml version="1.0" encoding="UTF-8"?>
<svg xmlns="http://www.w3.org/2000/svg" xmlns:xlink="http://www.w3.org/1999/xlink" width="24px" height="24px" viewBox="0 0 24 24" version="1.1">
<g id="surface1">
<path style=" stroke:none;fill-rule:nonzero;fill:rgb(0%,0%,0%);fill-opacity:1;" d="M 1.640625 0.136719 C 0.875 0.378906 0.277344 1.015625 0.0703125 1.8125 C -0.0390625 2.222656 -0.03125 8.898438 0.0703125 9.304688 C 0.183594 9.734375 0.371094 10.074219 0.679688 10.382812 C 1.023438 10.734375 1.316406 10.902344 1.785156 11.019531 C 2.128906 11.109375 2.304688 11.113281 5.675781 11.101562 C 9.167969 11.085938 9.214844 11.085938 9.476562 10.984375 C 10.039062 10.773438 10.566406 10.316406 10.804688 9.84375 C 11.0625 9.332031 11.0625 9.347656 11.0625 5.550781 C 11.0625 2.257812 11.058594 2.019531 10.972656 1.734375 C 10.757812 0.976562 10.167969 0.367188 9.4375 0.140625 C 9.140625 0.0507812 9.007812 0.046875 5.511719 0.0507812 C 2.210938 0.0546875 1.875 0.0625 1.640625 0.136719 Z M 9.046875 1.855469 C 9.34375 2.035156 9.328125 1.859375 9.328125 5.5625 C 9.328125 8.773438 9.324219 8.933594 9.238281 9.074219 C 9.050781 9.382812 9.171875 9.375 5.53125 9.375 C 1.882812 9.375 2.023438 9.382812 1.828125 9.070312 C 1.734375 8.921875 1.734375 8.863281 1.742188 5.507812 L 1.757812 2.101562 L 1.929688 1.941406 L 2.109375 1.78125 L 5.511719 1.78125 C 8.578125 1.78125 8.929688 1.789062 9.046875 1.855469 Z M 9.046875 1.855469 "/>
<path style=" stroke:none;fill-rule:nonzero;fill:rgb(0%,0%,0%);fill-opacity:1;" d="M 14.523438 0.15625 C 13.789062 0.402344 13.242188 0.984375 13.027344 1.734375 C 12.941406 2.019531 12.9375 2.257812 12.9375 5.550781 C 12.9375 9.347656 12.9375 9.332031 13.195312 9.84375 C 13.433594 10.316406 13.960938 10.773438 14.523438 10.984375 C 14.785156 11.085938 14.832031 11.085938 18.324219 11.101562 C 21.695312 11.113281 21.871094 11.109375 22.214844 11.019531 C 22.683594 10.902344 22.976562 10.734375 23.320312 10.382812 C 23.628906 10.074219 23.816406 9.734375 23.929688 9.304688 C 24.03125 8.898438 24.039062 2.222656 23.929688 1.8125 C 23.71875 1.003906 23.117188 0.371094 22.339844 0.136719 C 22.074219 0.0507812 21.824219 0.046875 18.445312 0.046875 L 14.835938 0.0507812 Z M 22.070312 1.941406 L 22.242188 2.101562 L 22.257812 5.507812 C 22.265625 8.863281 22.265625 8.921875 22.171875 9.070312 C 21.976562 9.382812 22.117188 9.375 18.46875 9.375 C 14.828125 9.375 14.949219 9.382812 14.761719 9.074219 C 14.675781 8.933594 14.671875 8.773438 14.671875 5.5625 C 14.671875 2.539062 14.679688 2.179688 14.746094 2.066406 C 14.925781 1.765625 14.734375 1.785156 18.484375 1.78125 L 21.890625 1.78125 Z M 22.070312 1.941406 "/>
<path style=" stroke:none;fill-rule:nonzero;fill:rgb(0%,0%,0%);fill-opacity:1;" d="M 1.757812 12.980469 C 1.3125 13.101562 1.011719 13.273438 0.679688 13.617188 C 0.371094 13.925781 0.183594 14.265625 0.0703125 14.695312 C -0.03125 15.101562 -0.0390625 21.777344 0.0703125 22.1875 C 0.28125 22.996094 0.882812 23.628906 1.660156 23.863281 C 1.925781 23.949219 2.179688 23.953125 5.535156 23.953125 C 9.003906 23.953125 9.140625 23.949219 9.4375 23.859375 C 10.167969 23.632812 10.757812 23.023438 10.972656 22.265625 C 11.058594 21.980469 11.0625 21.742188 11.0625 18.449219 C 11.0625 14.652344 11.0625 14.667969 10.804688 14.15625 C 10.566406 13.683594 10.039062 13.226562 9.476562 13.015625 C 9.214844 12.914062 9.171875 12.914062 5.648438 12.90625 C 2.296875 12.894531 2.066406 12.898438 1.757812 12.980469 Z M 8.984375 14.703125 C 9.078125 14.746094 9.191406 14.84375 9.238281 14.925781 C 9.324219 15.066406 9.328125 15.226562 9.328125 18.4375 C 9.328125 22.140625 9.34375 21.964844 9.046875 22.144531 C 8.929688 22.210938 8.578125 22.21875 5.511719 22.21875 L 2.109375 22.21875 L 1.929688 22.058594 L 1.757812 21.898438 L 1.742188 18.492188 C 1.734375 15.140625 1.734375 15.078125 1.828125 14.929688 C 2.023438 14.617188 1.871094 14.625 5.523438 14.625 C 8.507812 14.625 8.835938 14.632812 8.984375 14.703125 Z M 8.984375 14.703125 "/>
<path style=" stroke:none;fill-rule:nonzero;fill:rgb(0%,0%,0%);fill-opacity:1;" d="M 14.90625 12.921875 C 14.222656 13.035156 13.5 13.554688 13.195312 14.15625 C 12.9375 14.667969 12.9375 14.648438 12.9375 18.449219 C 12.9375 21.742188 12.941406 21.980469 13.027344 22.265625 C 13.242188 23.023438 13.832031 23.632812 14.5625 23.859375 C 14.859375 23.949219 14.996094 23.953125 18.464844 23.953125 C 21.820312 23.953125 22.074219 23.949219 22.339844 23.863281 C 23.117188 23.628906 23.71875 22.996094 23.929688 22.1875 C 24.039062 21.777344 24.03125 15.101562 23.929688 14.695312 C 23.816406 14.265625 23.628906 13.925781 23.320312 13.617188 C 22.976562 13.269531 22.683594 13.097656 22.222656 12.980469 C 21.894531 12.894531 21.679688 12.890625 18.449219 12.894531 C 16.566406 12.898438 14.972656 12.914062 14.90625 12.921875 Z M 21.917969 14.699219 C 22.003906 14.742188 22.121094 14.84375 22.171875 14.929688 C 22.265625 15.078125 22.265625 15.136719 22.257812 18.492188 L 22.242188 21.898438 L 22.070312 22.058594 L 21.890625 22.21875 L 18.488281 22.21875 C 15.421875 22.21875 15.070312 22.210938 14.953125 22.144531 C 14.65625 21.964844 14.671875 22.140625 14.671875 18.4375 C 14.671875 15.234375 14.675781 15.066406 14.761719 14.925781 C 14.949219 14.617188 14.8125 14.625 18.460938 14.625 C 21.394531 14.625 21.777344 14.632812 21.917969 14.699219 Z M 21.917969 14.699219 "/>
</g>
</svg>
