<svg xmlns="http://www.w3.org/2000/svg" width="682.667" height="682.667" version="1.0" viewBox="0 0 512 512"><path d="M486 27.9C477.4 30.6 11.8 216.6 8.8 218.6c-6.4 4.1-9.9 13.6-7.9 21.1 1.3 4.9 5.6 10.6 9.6 12.7 1.7.9 30.6 12.2 64.4 25.1s61.6 23.6 61.8 23.8 8.2 30.2 17.8 66.6 18 67.1 18.6 68.4c4.9 9.6 17.5 13.9 26.9 9.2 1.4-.7 18.2-12.6 37.3-26.4l34.9-25 9.1 6.3c31.9 22 119 80.7 121.8 82.2 2.2 1.2 5.6 1.8 9.6 1.9 5.2 0 6.8-.4 10.5-3 2.6-1.8 5.2-4.8 6.5-7.5 3-6 82.7-423.6 82-429.2-1.6-12-14.4-20.4-25.7-16.9m-90 83.5c-3.6 3.5-48.8 46.9-100.5 96.6-109.4 104.9-109 104.6-110 109-.4 1.7-1 2.8-1.4 2.3-.4-.4-3.2-10-6.1-21.2-5.7-21.5-8-26.5-13.8-29.5-1.6-.8-21.2-8.5-43.7-17.1s-41.5-16-42.3-16.4c-1-.6 27.7-12.4 87.9-36.4 49.2-19.6 122-48.6 161.9-64.6 39.9-15.9 72.9-29 73.5-29 .5-.1-1.9 2.8-5.5 6.3m62.8.3c-.5 2.7-14.3 75.1-30.7 161.1-16.4 85.9-30 156.5-30.3 156.7-.7.8-160.8-107.8-160.5-108.7.3-1 221-213.7 221.8-213.7.3-.1.2 2-.3 4.6M214.4 355c11.8 8 21.5 14.7 21.5 15 0 .9-32 23.2-32.5 22.7-.3-.3-3.7-12.4-7.5-26.9-3.8-14.4-7.2-27.2-7.6-28.3-.5-1.8-.3-1.7 2 .5 1.4 1.4 12.2 9 24.1 17"/></svg>